<svg xmlns="http://www.w3.org/2000/svg" xmlns:xlink="http://www.w3.org/1999/xlink" width="500" zoomAndPan="magnify" viewBox="0 0 375 374.999991" height="500" preserveAspectRatio="xMidYMid meet" version="1.0"><defs><g/><clipPath id="0b0a6632fe"><path d="M 236 206 L 299 206 L 299 276 L 236 276 Z M 236 206 " clip-rule="nonzero"/></clipPath><clipPath id="9cc31b987a"><path d="M 276.242188 189.089844 L 321.34375 224.746094 L 281.089844 275.660156 L 235.988281 240.003906 Z M 276.242188 189.089844 " clip-rule="nonzero"/></clipPath><clipPath id="914542c237"><path d="M 298.792969 206.917969 L 281.105469 275.640625 L 236.007812 239.984375 Z M 298.792969 206.917969 " clip-rule="nonzero"/></clipPath><clipPath id="ec3e74adcc"><path d="M 0 0.878906 L 62.800781 0.878906 L 62.800781 69.761719 L 0 69.761719 Z M 0 0.878906 " clip-rule="nonzero"/></clipPath><clipPath id="a61e0b9b19"><path d="M 40.242188 -16.910156 L 85.34375 18.746094 L 45.089844 69.660156 L -0.0117188 34.003906 Z M 40.242188 -16.910156 " clip-rule="nonzero"/></clipPath><clipPath id="5e2d21bebe"><path d="M 62.792969 0.917969 L 45.105469 69.640625 L 0.0078125 33.984375 Z M 62.792969 0.917969 " clip-rule="nonzero"/></clipPath><clipPath id="96488688e8"><rect x="0" width="63" y="0" height="70"/></clipPath><clipPath id="4ea9ef16a0"><path d="M 302 152 L 373 152 L 373 207 L 302 207 Z M 302 152 " clip-rule="nonzero"/></clipPath><clipPath id="ee5c7e231b"><path d="M 385.589844 181.410156 L 360.339844 232.363281 L 302.820312 203.855469 L 328.070312 152.90625 Z M 385.589844 181.410156 " clip-rule="nonzero"/></clipPath><clipPath id="f6a5d28ee2"><path d="M 372.964844 206.886719 L 302.84375 203.867188 L 328.09375 152.917969 Z M 372.964844 206.886719 " clip-rule="nonzero"/></clipPath><clipPath id="99417ac04f"><path d="M 0.640625 0.878906 L 71 0.878906 L 71 55 L 0.640625 55 Z M 0.640625 0.878906 " clip-rule="nonzero"/></clipPath><clipPath id="3da84aabc5"><path d="M 83.589844 29.410156 L 58.339844 80.363281 L 0.820312 51.855469 L 26.070312 0.90625 Z M 83.589844 29.410156 " clip-rule="nonzero"/></clipPath><clipPath id="4862dd2d2b"><path d="M 70.964844 54.886719 L 0.84375 51.867188 L 26.09375 0.917969 Z M 70.964844 54.886719 " clip-rule="nonzero"/></clipPath><clipPath id="1c117bf9b0"><rect x="0" width="71" y="0" height="55"/></clipPath><clipPath id="50a174cd17"><path d="M 231 174 L 300 174 L 300 234 L 231 234 Z M 231 174 " clip-rule="nonzero"/></clipPath><clipPath id="e0026fb7b9"><path d="M 298.691406 173.171875 L 300.011719 232.488281 L 233.050781 233.976562 L 231.734375 174.660156 Z M 298.691406 173.171875 " clip-rule="nonzero"/></clipPath><clipPath id="be82f3fbe5"><path d="M 299.351562 202.828125 L 233.078125 233.972656 L 231.761719 174.660156 Z M 299.351562 202.828125 " clip-rule="nonzero"/></clipPath><clipPath id="7419f09cc0"><path d="M 0.601562 0.480469 L 68.519531 0.480469 L 68.519531 60 L 0.601562 60 Z M 0.601562 0.480469 " clip-rule="nonzero"/></clipPath><clipPath id="dab13638e2"><path d="M 67.691406 -0.828125 L 69.011719 58.488281 L 2.050781 59.976562 L 0.734375 0.660156 Z M 67.691406 -0.828125 " clip-rule="nonzero"/></clipPath><clipPath id="bb0cce83bc"><path d="M 68.351562 28.828125 L 2.078125 59.972656 L 0.761719 0.660156 Z M 68.351562 28.828125 " clip-rule="nonzero"/></clipPath><clipPath id="9d0aba3f00"><rect x="0" width="69" y="0" height="60"/></clipPath><clipPath id="a9e9b289df"><path d="M 264 96 L 334 96 L 334 206 L 264 206 Z M 264 96 " clip-rule="nonzero"/></clipPath><clipPath id="c9fa9bace6"><path d="M 316.136719 79.78125 L 351.792969 188.714844 L 300.152344 205.617188 L 264.496094 96.683594 Z M 316.136719 79.78125 " clip-rule="nonzero"/></clipPath><clipPath id="c919dc7ce2"><path d="M 333.9375 134.15625 L 300.089844 205.429688 L 264.496094 96.683594 Z M 333.9375 134.15625 " clip-rule="nonzero"/></clipPath><clipPath id="410d82bd36"><path d="M 0.480469 0.480469 L 70 0.480469 L 70 109.441406 L 0.480469 109.441406 Z M 0.480469 0.480469 " clip-rule="nonzero"/></clipPath><clipPath id="b0d2a94cf5"><path d="M 52.136719 -16.21875 L 87.792969 92.714844 L 36.152344 109.617188 L 0.496094 0.683594 Z M 52.136719 -16.21875 " clip-rule="nonzero"/></clipPath><clipPath id="af72ee2d28"><path d="M 69.9375 38.15625 L 36.089844 109.429688 L 0.496094 0.683594 Z M 69.9375 38.15625 " clip-rule="nonzero"/></clipPath><clipPath id="02b7089fe8"><rect x="0" width="70" y="0" height="110"/></clipPath><clipPath id="3582e03220"><path d="M 231 132 L 296 132 L 296 200 L 231 200 Z M 231 132 " clip-rule="nonzero"/></clipPath><clipPath id="5b1ead8f12"><path d="M 316.714844 179.863281 L 275.019531 218.195312 L 231.746094 171.121094 L 273.445312 132.789062 Z M 316.714844 179.863281 " clip-rule="nonzero"/></clipPath><clipPath id="afdb92c35b"><path d="M 295.867188 199.03125 L 231.765625 171.140625 L 273.464844 132.8125 Z M 295.867188 199.03125 " clip-rule="nonzero"/></clipPath><clipPath id="32a28b2a91"><path d="M 0.601562 0.71875 L 64.921875 0.71875 L 64.921875 67.199219 L 0.601562 67.199219 Z M 0.601562 0.71875 " clip-rule="nonzero"/></clipPath><clipPath id="0298f96b27"><path d="M 85.714844 47.863281 L 44.019531 86.195312 L 0.746094 39.121094 L 42.445312 0.789062 Z M 85.714844 47.863281 " clip-rule="nonzero"/></clipPath><clipPath id="3438c29abb"><path d="M 64.867188 67.03125 L 0.765625 39.140625 L 42.464844 0.8125 Z M 64.867188 67.03125 " clip-rule="nonzero"/></clipPath><clipPath id="26bb52ea78"><rect x="0" width="65" y="0" height="68"/></clipPath><clipPath id="fcac728df0"><path d="M 289 205 L 367 205 L 367 269 L 289 269 Z M 289 205 " clip-rule="nonzero"/></clipPath><clipPath id="c0b34b57c5"><path d="M 264.5 233.582031 L 340.683594 177.785156 L 366.054688 212.425781 L 289.871094 268.222656 Z M 264.5 233.582031 " clip-rule="nonzero"/></clipPath><clipPath id="d42408b2e0"><path d="M 302.578125 205.695312 L 366.023438 212.449219 L 289.871094 268.222656 Z M 302.578125 205.695312 " clip-rule="nonzero"/></clipPath><clipPath id="eee4fcdbf7"><path d="M 0.679688 0.679688 L 77.238281 0.679688 L 77.238281 63.320312 L 0.679688 63.320312 Z M 0.679688 0.679688 " clip-rule="nonzero"/></clipPath><clipPath id="392202be0f"><path d="M -24.5 28.582031 L 51.683594 -27.214844 L 77.054688 7.425781 L 0.871094 63.222656 Z M -24.5 28.582031 " clip-rule="nonzero"/></clipPath><clipPath id="e3cb10aae1"><path d="M 13.578125 0.695312 L 77.023438 7.449219 L 0.871094 63.222656 Z M 13.578125 0.695312 " clip-rule="nonzero"/></clipPath><clipPath id="eb2a130cf0"><path d="M -24.5 28.582031 L 51.683594 -27.214844 L 77.054688 7.425781 L 0.871094 63.222656 Z M -24.5 28.582031 " clip-rule="nonzero"/></clipPath><clipPath id="bbf45ae81a"><path d="M -24.5 28.582031 L 51.652344 -27.191406 L 77.023438 7.449219 L 0.871094 63.222656 Z M -24.5 28.582031 " clip-rule="nonzero"/></clipPath><linearGradient x1="0.001939" gradientTransform="matrix(0.135314, -0.0991055, 0.0991055, 0.135314, -24.499212, 28.582812)" y1="128" x2="586.574964" gradientUnits="userSpaceOnUse" y2="128" id="b76d11e290"><stop stop-opacity="1" stop-color="rgb(0%, 0%, 0%)" offset="0"/><stop stop-opacity="1" stop-color="rgb(0.0839233%, 0.0808716%, 0.326538%)" offset="0.00390625"/><stop stop-opacity="1" stop-color="rgb(0.167847%, 0.161743%, 0.654602%)" offset="0.0078125"/><stop stop-opacity="1" stop-color="rgb(0.25177%, 0.242615%, 0.98114%)" offset="0.0117188"/><stop stop-opacity="1" stop-color="rgb(0.337219%, 0.325012%, 1.309204%)" offset="0.015625"/><stop stop-opacity="1" stop-color="rgb(0.421143%, 0.405884%, 1.635742%)" offset="0.0195312"/><stop stop-opacity="1" stop-color="rgb(0.506592%, 0.488281%, 1.963806%)" offset="0.0234375"/><stop stop-opacity="1" stop-color="rgb(0.590515%, 0.569153%, 2.290344%)" offset="0.0273438"/><stop stop-opacity="1" stop-color="rgb(0.675964%, 0.650024%, 2.618408%)" offset="0.03125"/><stop stop-opacity="1" stop-color="rgb(0.759888%, 0.730896%, 2.944946%)" offset="0.0351562"/><stop stop-opacity="1" stop-color="rgb(0.845337%, 0.813293%, 3.27301%)" offset="0.0390625"/><stop stop-opacity="1" stop-color="rgb(0.92926%, 0.894165%, 3.599548%)" offset="0.0429688"/><stop stop-opacity="1" stop-color="rgb(1.014709%, 0.976562%, 3.927612%)" offset="0.046875"/><stop stop-opacity="1" stop-color="rgb(1.098633%, 1.057434%, 4.25415%)" offset="0.0507812"/><stop stop-opacity="1" stop-color="rgb(1.184082%, 1.139832%, 4.582214%)" offset="0.0546875"/><stop stop-opacity="1" stop-color="rgb(1.268005%, 1.220703%, 4.908752%)" offset="0.0585938"/><stop stop-opacity="1" stop-color="rgb(1.353455%, 1.301575%, 5.236816%)" offset="0.0625"/><stop stop-opacity="1" stop-color="rgb(1.437378%, 1.382446%, 5.563354%)" offset="0.0664062"/><stop stop-opacity="1" stop-color="rgb(1.522827%, 1.464844%, 5.891418%)" offset="0.0703125"/><stop stop-opacity="1" stop-color="rgb(1.60675%, 1.545715%, 6.217957%)" offset="0.0742188"/><stop stop-opacity="1" stop-color="rgb(1.690674%, 1.628113%, 6.546021%)" offset="0.078125"/><stop stop-opacity="1" stop-color="rgb(1.774597%, 1.708984%, 6.872559%)" offset="0.0820312"/><stop stop-opacity="1" stop-color="rgb(1.860046%, 1.791382%, 7.200623%)" offset="0.0859375"/><stop stop-opacity="1" stop-color="rgb(1.94397%, 1.872253%, 7.527161%)" offset="0.0898438"/><stop stop-opacity="1" stop-color="rgb(2.029419%, 1.953125%, 7.855225%)" offset="0.09375"/><stop stop-opacity="1" stop-color="rgb(2.113342%, 2.033997%, 8.181763%)" offset="0.0976562"/><stop stop-opacity="1" stop-color="rgb(2.198792%, 2.116394%, 8.509827%)" offset="0.101562"/><stop stop-opacity="1" stop-color="rgb(2.282715%, 2.197266%, 8.836365%)" offset="0.105469"/><stop stop-opacity="1" stop-color="rgb(2.368164%, 2.279663%, 9.164429%)" offset="0.109375"/><stop stop-opacity="1" stop-color="rgb(2.452087%, 2.360535%, 9.490967%)" offset="0.113281"/><stop stop-opacity="1" stop-color="rgb(2.537537%, 2.441406%, 9.819031%)" offset="0.117188"/><stop stop-opacity="1" stop-color="rgb(2.62146%, 2.522278%, 10.145569%)" offset="0.121094"/><stop stop-opacity="1" stop-color="rgb(2.706909%, 2.604675%, 10.473633%)" offset="0.125"/><stop stop-opacity="1" stop-color="rgb(2.790833%, 2.685547%, 10.800171%)" offset="0.128906"/><stop stop-opacity="1" stop-color="rgb(2.876282%, 2.767944%, 11.128235%)" offset="0.132812"/><stop stop-opacity="1" stop-color="rgb(2.960205%, 2.848816%, 11.454773%)" offset="0.136719"/><stop stop-opacity="1" stop-color="rgb(3.045654%, 2.931213%, 11.782837%)" offset="0.140625"/><stop stop-opacity="1" stop-color="rgb(3.129578%, 3.012085%, 12.109375%)" offset="0.144531"/><stop stop-opacity="1" stop-color="rgb(3.213501%, 3.092957%, 12.437439%)" offset="0.148438"/><stop stop-opacity="1" stop-color="rgb(3.297424%, 3.173828%, 12.763977%)" offset="0.152344"/><stop stop-opacity="1" stop-color="rgb(3.382874%, 3.256226%, 13.092041%)" offset="0.15625"/><stop stop-opacity="1" stop-color="rgb(3.466797%, 3.337097%, 13.418579%)" offset="0.160156"/><stop stop-opacity="1" stop-color="rgb(3.552246%, 3.419495%, 13.746643%)" offset="0.164062"/><stop stop-opacity="1" stop-color="rgb(3.636169%, 3.500366%, 14.073181%)" offset="0.167969"/><stop stop-opacity="1" stop-color="rgb(3.721619%, 3.582764%, 14.401245%)" offset="0.171875"/><stop stop-opacity="1" stop-color="rgb(3.805542%, 3.663635%, 14.727783%)" offset="0.175781"/><stop stop-opacity="1" stop-color="rgb(3.890991%, 3.744507%, 15.055847%)" offset="0.179688"/><stop stop-opacity="1" stop-color="rgb(3.974915%, 3.825378%, 15.382385%)" offset="0.183594"/><stop stop-opacity="1" stop-color="rgb(4.060364%, 3.907776%, 15.710449%)" offset="0.1875"/><stop stop-opacity="1" stop-color="rgb(4.144287%, 3.988647%, 16.036987%)" offset="0.191406"/><stop stop-opacity="1" stop-color="rgb(4.229736%, 4.071045%, 16.365051%)" offset="0.195312"/><stop stop-opacity="1" stop-color="rgb(4.31366%, 4.151917%, 16.691589%)" offset="0.199219"/><stop stop-opacity="1" stop-color="rgb(4.399109%, 4.232788%, 17.019653%)" offset="0.203125"/><stop stop-opacity="1" stop-color="rgb(4.483032%, 4.31366%, 17.346191%)" offset="0.207031"/><stop stop-opacity="1" stop-color="rgb(4.568481%, 4.396057%, 17.674255%)" offset="0.210938"/><stop stop-opacity="1" stop-color="rgb(4.652405%, 4.476929%, 18.000793%)" offset="0.214844"/><stop stop-opacity="1" stop-color="rgb(4.736328%, 4.559326%, 18.328857%)" offset="0.21875"/><stop stop-opacity="1" stop-color="rgb(4.820251%, 4.640198%, 18.655396%)" offset="0.222656"/><stop stop-opacity="1" stop-color="rgb(4.905701%, 4.722595%, 18.983459%)" offset="0.226562"/><stop stop-opacity="1" stop-color="rgb(4.989624%, 4.803467%, 19.309998%)" offset="0.230469"/><stop stop-opacity="1" stop-color="rgb(5.075073%, 4.884338%, 19.638062%)" offset="0.234375"/><stop stop-opacity="1" stop-color="rgb(5.158997%, 4.96521%, 19.9646%)" offset="0.238281"/><stop stop-opacity="1" stop-color="rgb(5.244446%, 5.047607%, 20.292664%)" offset="0.242188"/><stop stop-opacity="1" stop-color="rgb(5.328369%, 5.128479%, 20.619202%)" offset="0.246094"/><stop stop-opacity="1" stop-color="rgb(5.413818%, 5.210876%, 20.947266%)" offset="0.25"/><stop stop-opacity="1" stop-color="rgb(5.497742%, 5.291748%, 21.273804%)" offset="0.253906"/><stop stop-opacity="1" stop-color="rgb(5.583191%, 5.374146%, 21.600342%)" offset="0.257812"/><stop stop-opacity="1" stop-color="rgb(5.667114%, 5.455017%, 21.92688%)" offset="0.261719"/><stop stop-opacity="1" stop-color="rgb(5.752563%, 5.535889%, 22.254944%)" offset="0.265625"/><stop stop-opacity="1" stop-color="rgb(5.836487%, 5.61676%, 22.581482%)" offset="0.269531"/><stop stop-opacity="1" stop-color="rgb(5.921936%, 5.699158%, 22.909546%)" offset="0.273438"/><stop stop-opacity="1" stop-color="rgb(6.005859%, 5.780029%, 23.236084%)" offset="0.277344"/><stop stop-opacity="1" stop-color="rgb(6.091309%, 5.862427%, 23.564148%)" offset="0.28125"/><stop stop-opacity="1" stop-color="rgb(6.175232%, 5.943298%, 23.890686%)" offset="0.285156"/><stop stop-opacity="1" stop-color="rgb(6.260681%, 6.02417%, 24.21875%)" offset="0.289062"/><stop stop-opacity="1" stop-color="rgb(6.344604%, 6.105042%, 24.545288%)" offset="0.292969"/><stop stop-opacity="1" stop-color="rgb(6.428528%, 6.187439%, 24.873352%)" offset="0.296875"/><stop stop-opacity="1" stop-color="rgb(6.512451%, 6.268311%, 25.19989%)" offset="0.300781"/><stop stop-opacity="1" stop-color="rgb(6.5979%, 6.350708%, 25.527954%)" offset="0.304687"/><stop stop-opacity="1" stop-color="rgb(6.681824%, 6.43158%, 25.854492%)" offset="0.308594"/><stop stop-opacity="1" stop-color="rgb(6.767273%, 6.513977%, 26.182556%)" offset="0.3125"/><stop stop-opacity="1" stop-color="rgb(6.851196%, 6.594849%, 26.509094%)" offset="0.316406"/><stop stop-opacity="1" stop-color="rgb(6.936646%, 6.67572%, 26.837158%)" offset="0.320313"/><stop stop-opacity="1" stop-color="rgb(7.020569%, 6.756592%, 27.163696%)" offset="0.324219"/><stop stop-opacity="1" stop-color="rgb(7.106018%, 6.838989%, 27.49176%)" offset="0.328125"/><stop stop-opacity="1" stop-color="rgb(7.189941%, 6.919861%, 27.818298%)" offset="0.332031"/><stop stop-opacity="1" stop-color="rgb(7.275391%, 7.002258%, 28.146362%)" offset="0.335938"/><stop stop-opacity="1" stop-color="rgb(7.359314%, 7.08313%, 28.4729%)" offset="0.339844"/><stop stop-opacity="1" stop-color="rgb(7.444763%, 7.165527%, 28.800964%)" offset="0.34375"/><stop stop-opacity="1" stop-color="rgb(7.528687%, 7.246399%, 29.127502%)" offset="0.347656"/><stop stop-opacity="1" stop-color="rgb(7.614136%, 7.327271%, 29.455566%)" offset="0.351563"/><stop stop-opacity="1" stop-color="rgb(7.698059%, 7.408142%, 29.782104%)" offset="0.355469"/><stop stop-opacity="1" stop-color="rgb(7.783508%, 7.49054%, 30.110168%)" offset="0.359375"/><stop stop-opacity="1" stop-color="rgb(7.867432%, 7.571411%, 30.436707%)" offset="0.363281"/><stop stop-opacity="1" stop-color="rgb(7.951355%, 7.653809%, 30.764771%)" offset="0.367188"/><stop stop-opacity="1" stop-color="rgb(8.035278%, 7.73468%, 31.091309%)" offset="0.371094"/><stop stop-opacity="1" stop-color="rgb(8.120728%, 7.817078%, 31.419373%)" offset="0.375"/><stop stop-opacity="1" stop-color="rgb(8.204651%, 7.897949%, 31.745911%)" offset="0.378906"/><stop stop-opacity="1" stop-color="rgb(8.2901%, 7.978821%, 32.073975%)" offset="0.382813"/><stop stop-opacity="1" stop-color="rgb(8.374023%, 8.059692%, 32.400513%)" offset="0.386719"/><stop stop-opacity="1" stop-color="rgb(8.459473%, 8.14209%, 32.728577%)" offset="0.390625"/><stop stop-opacity="1" stop-color="rgb(8.543396%, 8.222961%, 33.055115%)" offset="0.394531"/><stop stop-opacity="1" stop-color="rgb(8.628845%, 8.305359%, 33.383179%)" offset="0.398438"/><stop stop-opacity="1" stop-color="rgb(8.712769%, 8.38623%, 33.709717%)" offset="0.402344"/><stop stop-opacity="1" stop-color="rgb(8.798218%, 8.467102%, 34.037781%)" offset="0.40625"/><stop stop-opacity="1" stop-color="rgb(8.882141%, 8.547974%, 34.364319%)" offset="0.410156"/><stop stop-opacity="1" stop-color="rgb(8.96759%, 8.630371%, 34.692383%)" offset="0.414063"/><stop stop-opacity="1" stop-color="rgb(9.051514%, 8.711243%, 35.018921%)" offset="0.417969"/><stop stop-opacity="1" stop-color="rgb(9.136963%, 8.79364%, 35.346985%)" offset="0.421875"/><stop stop-opacity="1" stop-color="rgb(9.220886%, 8.874512%, 35.673523%)" offset="0.425781"/><stop stop-opacity="1" stop-color="rgb(9.306335%, 8.956909%, 36.001587%)" offset="0.429688"/><stop stop-opacity="1" stop-color="rgb(9.390259%, 9.037781%, 36.328125%)" offset="0.433594"/><stop stop-opacity="1" stop-color="rgb(9.474182%, 9.118652%, 36.656189%)" offset="0.4375"/><stop stop-opacity="1" stop-color="rgb(9.558105%, 9.199524%, 36.982727%)" offset="0.441406"/><stop stop-opacity="1" stop-color="rgb(9.643555%, 9.281921%, 37.310791%)" offset="0.445313"/><stop stop-opacity="1" stop-color="rgb(9.727478%, 9.362793%, 37.637329%)" offset="0.449219"/><stop stop-opacity="1" stop-color="rgb(9.812927%, 9.44519%, 37.965393%)" offset="0.453125"/><stop stop-opacity="1" stop-color="rgb(9.896851%, 9.526062%, 38.291931%)" offset="0.457031"/><stop stop-opacity="1" stop-color="rgb(9.9823%, 9.608459%, 38.619995%)" offset="0.460938"/><stop stop-opacity="1" stop-color="rgb(10.066223%, 9.689331%, 38.946533%)" offset="0.464844"/><stop stop-opacity="1" stop-color="rgb(10.151672%, 9.770203%, 39.274597%)" offset="0.46875"/><stop stop-opacity="1" stop-color="rgb(10.235596%, 9.851074%, 39.601135%)" offset="0.472656"/><stop stop-opacity="1" stop-color="rgb(10.321045%, 9.933472%, 39.929199%)" offset="0.476562"/><stop stop-opacity="1" stop-color="rgb(10.404968%, 10.014343%, 40.255737%)" offset="0.480469"/><stop stop-opacity="1" stop-color="rgb(10.490417%, 10.096741%, 40.583801%)" offset="0.484375"/><stop stop-opacity="1" stop-color="rgb(10.574341%, 10.177612%, 40.910339%)" offset="0.488281"/><stop stop-opacity="1" stop-color="rgb(10.65979%, 10.258484%, 41.238403%)" offset="0.492188"/><stop stop-opacity="1" stop-color="rgb(10.743713%, 10.339355%, 41.564941%)" offset="0.496094"/><stop stop-opacity="1" stop-color="rgb(10.829163%, 10.421753%, 41.893005%)" offset="0.5"/><stop stop-opacity="1" stop-color="rgb(10.913086%, 10.502625%, 42.219543%)" offset="0.503906"/><stop stop-opacity="1" stop-color="rgb(10.997009%, 10.585022%, 42.547607%)" offset="0.507813"/><stop stop-opacity="1" stop-color="rgb(11.080933%, 10.665894%, 42.874146%)" offset="0.511719"/><stop stop-opacity="1" stop-color="rgb(11.166382%, 10.748291%, 43.202209%)" offset="0.515625"/><stop stop-opacity="1" stop-color="rgb(11.250305%, 10.829163%, 43.528748%)" offset="0.519531"/><stop stop-opacity="1" stop-color="rgb(11.335754%, 10.910034%, 43.856812%)" offset="0.523438"/><stop stop-opacity="1" stop-color="rgb(11.419678%, 10.990906%, 44.18335%)" offset="0.527344"/><stop stop-opacity="1" stop-color="rgb(11.505127%, 11.073303%, 44.511414%)" offset="0.53125"/><stop stop-opacity="1" stop-color="rgb(11.58905%, 11.154175%, 44.837952%)" offset="0.535156"/><stop stop-opacity="1" stop-color="rgb(11.6745%, 11.236572%, 45.166016%)" offset="0.539063"/><stop stop-opacity="1" stop-color="rgb(11.758423%, 11.317444%, 45.492554%)" offset="0.542969"/><stop stop-opacity="1" stop-color="rgb(11.843872%, 11.399841%, 45.820618%)" offset="0.546875"/><stop stop-opacity="1" stop-color="rgb(11.927795%, 11.480713%, 46.147156%)" offset="0.550781"/><stop stop-opacity="1" stop-color="rgb(12.013245%, 11.561584%, 46.47522%)" offset="0.554688"/><stop stop-opacity="1" stop-color="rgb(12.097168%, 11.642456%, 46.801758%)" offset="0.558594"/><stop stop-opacity="1" stop-color="rgb(12.182617%, 11.724854%, 47.129822%)" offset="0.5625"/><stop stop-opacity="1" stop-color="rgb(12.266541%, 11.805725%, 47.45636%)" offset="0.566406"/><stop stop-opacity="1" stop-color="rgb(12.35199%, 11.888123%, 47.784424%)" offset="0.570313"/><stop stop-opacity="1" stop-color="rgb(12.435913%, 11.968994%, 48.110962%)" offset="0.574219"/><stop stop-opacity="1" stop-color="rgb(12.519836%, 12.049866%, 48.439026%)" offset="0.578125"/><stop stop-opacity="1" stop-color="rgb(12.60376%, 12.130737%, 48.765564%)" offset="0.582031"/><stop stop-opacity="1" stop-color="rgb(12.689209%, 12.213135%, 49.093628%)" offset="0.585938"/><stop stop-opacity="1" stop-color="rgb(12.773132%, 12.294006%, 49.420166%)" offset="0.589844"/><stop stop-opacity="1" stop-color="rgb(12.858582%, 12.376404%, 49.74823%)" offset="0.59375"/><stop stop-opacity="1" stop-color="rgb(12.942505%, 12.457275%, 50.074768%)" offset="0.597656"/><stop stop-opacity="1" stop-color="rgb(13.027954%, 12.539673%, 50.402832%)" offset="0.601563"/><stop stop-opacity="1" stop-color="rgb(13.111877%, 12.620544%, 50.72937%)" offset="0.605469"/><stop stop-opacity="1" stop-color="rgb(13.197327%, 12.701416%, 51.057434%)" offset="0.609375"/><stop stop-opacity="1" stop-color="rgb(13.28125%, 12.782288%, 51.383972%)" offset="0.613281"/><stop stop-opacity="1" stop-color="rgb(13.366699%, 12.864685%, 51.712036%)" offset="0.617188"/><stop stop-opacity="1" stop-color="rgb(13.450623%, 12.945557%, 52.038574%)" offset="0.621094"/><stop stop-opacity="1" stop-color="rgb(13.536072%, 13.027954%, 52.366638%)" offset="0.625"/><stop stop-opacity="1" stop-color="rgb(13.619995%, 13.108826%, 52.693176%)" offset="0.628906"/><stop stop-opacity="1" stop-color="rgb(13.705444%, 13.191223%, 53.02124%)" offset="0.632813"/><stop stop-opacity="1" stop-color="rgb(13.789368%, 13.272095%, 53.347778%)" offset="0.636719"/><stop stop-opacity="1" stop-color="rgb(13.874817%, 13.352966%, 53.675842%)" offset="0.640625"/><stop stop-opacity="1" stop-color="rgb(13.95874%, 13.433838%, 54.00238%)" offset="0.644531"/><stop stop-opacity="1" stop-color="rgb(14.042664%, 13.516235%, 54.330444%)" offset="0.648438"/><stop stop-opacity="1" stop-color="rgb(14.126587%, 13.597107%, 54.656982%)" offset="0.652344"/><stop stop-opacity="1" stop-color="rgb(14.212036%, 13.679504%, 54.985046%)" offset="0.65625"/><stop stop-opacity="1" stop-color="rgb(14.295959%, 13.760376%, 55.311584%)" offset="0.660156"/><stop stop-opacity="1" stop-color="rgb(14.381409%, 13.841248%, 55.639648%)" offset="0.664063"/><stop stop-opacity="1" stop-color="rgb(14.465332%, 13.922119%, 55.966187%)" offset="0.667969"/><stop stop-opacity="1" stop-color="rgb(14.550781%, 14.004517%, 56.29425%)" offset="0.671875"/><stop stop-opacity="1" stop-color="rgb(14.634705%, 14.085388%, 56.620789%)" offset="0.675781"/><stop stop-opacity="1" stop-color="rgb(14.720154%, 14.167786%, 56.948853%)" offset="0.679688"/><stop stop-opacity="1" stop-color="rgb(14.804077%, 14.248657%, 57.275391%)" offset="0.683594"/><stop stop-opacity="1" stop-color="rgb(14.889526%, 14.331055%, 57.603455%)" offset="0.6875"/><stop stop-opacity="1" stop-color="rgb(14.97345%, 14.411926%, 57.929993%)" offset="0.691406"/><stop stop-opacity="1" stop-color="rgb(15.058899%, 14.492798%, 58.258057%)" offset="0.695313"/><stop stop-opacity="1" stop-color="rgb(15.142822%, 14.573669%, 58.584595%)" offset="0.699219"/><stop stop-opacity="1" stop-color="rgb(15.228271%, 14.656067%, 58.912659%)" offset="0.703125"/><stop stop-opacity="1" stop-color="rgb(15.312195%, 14.736938%, 59.239197%)" offset="0.707031"/><stop stop-opacity="1" stop-color="rgb(15.397644%, 14.819336%, 59.567261%)" offset="0.710938"/><stop stop-opacity="1" stop-color="rgb(15.481567%, 14.900208%, 59.893799%)" offset="0.714844"/><stop stop-opacity="1" stop-color="rgb(15.565491%, 14.982605%, 60.221863%)" offset="0.71875"/><stop stop-opacity="1" stop-color="rgb(15.649414%, 15.063477%, 60.548401%)" offset="0.722656"/><stop stop-opacity="1" stop-color="rgb(15.734863%, 15.144348%, 60.876465%)" offset="0.726563"/><stop stop-opacity="1" stop-color="rgb(15.818787%, 15.22522%, 61.203003%)" offset="0.730469"/><stop stop-opacity="1" stop-color="rgb(15.904236%, 15.307617%, 61.531067%)" offset="0.734375"/><stop stop-opacity="1" stop-color="rgb(15.988159%, 15.388489%, 61.857605%)" offset="0.738281"/><stop stop-opacity="1" stop-color="rgb(16.073608%, 15.470886%, 62.185669%)" offset="0.742188"/><stop stop-opacity="1" stop-color="rgb(16.157532%, 15.551758%, 62.512207%)" offset="0.746094"/><stop stop-opacity="1" stop-color="rgb(16.242981%, 15.632629%, 62.840271%)" offset="0.75"/><stop stop-opacity="1" stop-color="rgb(16.326904%, 15.713501%, 63.166809%)" offset="0.753906"/><stop stop-opacity="1" stop-color="rgb(16.412354%, 15.795898%, 63.494873%)" offset="0.757813"/><stop stop-opacity="1" stop-color="rgb(16.496277%, 15.87677%, 63.821411%)" offset="0.761719"/><stop stop-opacity="1" stop-color="rgb(16.581726%, 15.959167%, 64.149475%)" offset="0.765625"/><stop stop-opacity="1" stop-color="rgb(16.665649%, 16.040039%, 64.476013%)" offset="0.769531"/><stop stop-opacity="1" stop-color="rgb(16.751099%, 16.122437%, 64.804077%)" offset="0.773438"/><stop stop-opacity="1" stop-color="rgb(16.835022%, 16.203308%, 65.130615%)" offset="0.777344"/><stop stop-opacity="1" stop-color="rgb(16.920471%, 16.28418%, 65.458679%)" offset="0.78125"/><stop stop-opacity="1" stop-color="rgb(17.004395%, 16.365051%, 65.785217%)" offset="0.785156"/><stop stop-opacity="1" stop-color="rgb(17.089844%, 16.447449%, 66.113281%)" offset="0.789063"/><stop stop-opacity="1" stop-color="rgb(17.173767%, 16.52832%, 66.439819%)" offset="0.792969"/><stop stop-opacity="1" stop-color="rgb(17.25769%, 16.610718%, 66.767883%)" offset="0.796875"/><stop stop-opacity="1" stop-color="rgb(17.341614%, 16.691589%, 67.094421%)" offset="0.800781"/><stop stop-opacity="1" stop-color="rgb(17.427063%, 16.773987%, 67.422485%)" offset="0.804688"/><stop stop-opacity="1" stop-color="rgb(17.510986%, 16.854858%, 67.749023%)" offset="0.808594"/><stop stop-opacity="1" stop-color="rgb(17.596436%, 16.93573%, 68.077087%)" offset="0.8125"/><stop stop-opacity="1" stop-color="rgb(17.680359%, 17.016602%, 68.403625%)" offset="0.816406"/><stop stop-opacity="1" stop-color="rgb(17.765808%, 17.098999%, 68.731689%)" offset="0.820313"/><stop stop-opacity="1" stop-color="rgb(17.849731%, 17.179871%, 69.058228%)" offset="0.824219"/><stop stop-opacity="1" stop-color="rgb(17.935181%, 17.262268%, 69.386292%)" offset="0.828125"/><stop stop-opacity="1" stop-color="rgb(18.019104%, 17.34314%, 69.71283%)" offset="0.832031"/><stop stop-opacity="1" stop-color="rgb(18.104553%, 17.424011%, 70.040894%)" offset="0.835938"/><stop stop-opacity="1" stop-color="rgb(18.188477%, 17.504883%, 70.367432%)" offset="0.839844"/><stop stop-opacity="1" stop-color="rgb(18.273926%, 17.58728%, 70.695496%)" offset="0.84375"/><stop stop-opacity="1" stop-color="rgb(18.357849%, 17.668152%, 71.022034%)" offset="0.847656"/><stop stop-opacity="1" stop-color="rgb(18.443298%, 17.750549%, 71.350098%)" offset="0.851563"/><stop stop-opacity="1" stop-color="rgb(18.527222%, 17.831421%, 71.676636%)" offset="0.855469"/><stop stop-opacity="1" stop-color="rgb(18.612671%, 17.913818%, 72.0047%)" offset="0.859375"/><stop stop-opacity="1" stop-color="rgb(18.696594%, 17.99469%, 72.331238%)" offset="0.863281"/><stop stop-opacity="1" stop-color="rgb(18.780518%, 18.075562%, 72.659302%)" offset="0.867188"/><stop stop-opacity="1" stop-color="rgb(18.864441%, 18.156433%, 72.98584%)" offset="0.871094"/><stop stop-opacity="1" stop-color="rgb(18.94989%, 18.238831%, 73.313904%)" offset="0.875"/><stop stop-opacity="1" stop-color="rgb(19.033813%, 18.319702%, 73.640442%)" offset="0.878906"/><stop stop-opacity="1" stop-color="rgb(19.119263%, 18.4021%, 73.968506%)" offset="0.882813"/><stop stop-opacity="1" stop-color="rgb(19.203186%, 18.482971%, 74.295044%)" offset="0.886719"/><stop stop-opacity="1" stop-color="rgb(19.288635%, 18.565369%, 74.623108%)" offset="0.890625"/><stop stop-opacity="1" stop-color="rgb(19.372559%, 18.64624%, 74.949646%)" offset="0.894531"/><stop stop-opacity="1" stop-color="rgb(19.458008%, 18.727112%, 75.27771%)" offset="0.898438"/><stop stop-opacity="1" stop-color="rgb(19.541931%, 18.807983%, 75.604248%)" offset="0.902344"/><stop stop-opacity="1" stop-color="rgb(19.62738%, 18.890381%, 75.932312%)" offset="0.90625"/><stop stop-opacity="1" stop-color="rgb(19.711304%, 18.971252%, 76.25885%)" offset="0.910156"/><stop stop-opacity="1" stop-color="rgb(19.796753%, 19.05365%, 76.586914%)" offset="0.914063"/><stop stop-opacity="1" stop-color="rgb(19.880676%, 19.134521%, 76.913452%)" offset="0.917969"/><stop stop-opacity="1" stop-color="rgb(19.966125%, 19.215393%, 77.241516%)" offset="0.921875"/><stop stop-opacity="1" stop-color="rgb(20.050049%, 19.296265%, 77.568054%)" offset="0.925781"/><stop stop-opacity="1" stop-color="rgb(20.135498%, 19.378662%, 77.896118%)" offset="0.929688"/><stop stop-opacity="1" stop-color="rgb(20.219421%, 19.459534%, 78.222656%)" offset="0.933594"/><stop stop-opacity="1" stop-color="rgb(20.303345%, 19.541931%, 78.55072%)" offset="0.9375"/><stop stop-opacity="1" stop-color="rgb(20.387268%, 19.622803%, 78.877258%)" offset="0.941406"/><stop stop-opacity="1" stop-color="rgb(20.472717%, 19.7052%, 79.205322%)" offset="0.945313"/><stop stop-opacity="1" stop-color="rgb(20.556641%, 19.786072%, 79.53186%)" offset="0.949219"/><stop stop-opacity="1" stop-color="rgb(20.64209%, 19.866943%, 79.859924%)" offset="0.953125"/><stop stop-opacity="1" stop-color="rgb(20.710754%, 19.932556%, 80.123901%)" offset="0.957031"/><stop stop-opacity="1" stop-color="rgb(20.779419%, 19.999695%, 80.389404%)" offset="0.960938"/><stop stop-opacity="1" stop-color="rgb(20.779419%, 19.999695%, 80.389404%)" offset="0.96875"/><stop stop-opacity="1" stop-color="rgb(20.779419%, 19.999695%, 80.389404%)" offset="1"/></linearGradient><clipPath id="d9f66c8b85"><rect x="0" width="78" y="0" height="64"/></clipPath><clipPath id="959ad6d864"><rect x="0" width="309" y="0" height="77"/></clipPath></defs><g clip-path="url(#0b0a6632fe)"><g clip-path="url(#9cc31b987a)"><g clip-path="url(#914542c237)"><g transform="matrix(1, 0, 0, 1, 236, 206)"><g clip-path="url(#96488688e8)"><g clip-path="url(#ec3e74adcc)"><g clip-path="url(#a61e0b9b19)"><g clip-path="url(#5e2d21bebe)"><path fill="#155dfc" d="M 40.242188 -16.910156 L 85.34375 18.746094 L 45.089844 69.660156 L -0.0117188 34.003906 Z M 40.242188 -16.910156 " fill-opacity="1" fill-rule="nonzero"/></g></g></g></g></g></g></g></g><g clip-path="url(#4ea9ef16a0)"><g clip-path="url(#ee5c7e231b)"><g clip-path="url(#f6a5d28ee2)"><g transform="matrix(1, 0, 0, 1, 302, 152)"><g clip-path="url(#1c117bf9b0)"><g clip-path="url(#99417ac04f)"><g clip-path="url(#3da84aabc5)"><g clip-path="url(#4862dd2d2b)"><path fill="#155dfc" d="M 83.589844 29.410156 L 58.339844 80.363281 L 0.820312 51.855469 L 26.070312 0.90625 Z M 83.589844 29.410156 " fill-opacity="1" fill-rule="nonzero"/></g></g></g></g></g></g></g></g><g clip-path="url(#50a174cd17)"><g clip-path="url(#e0026fb7b9)"><g clip-path="url(#be82f3fbe5)"><g transform="matrix(1, 0, 0, 1, 231, 174)"><g clip-path="url(#9d0aba3f00)"><g clip-path="url(#7419f09cc0)"><g clip-path="url(#dab13638e2)"><g clip-path="url(#bb0cce83bc)"><path fill="#155dfc" d="M 67.691406 -0.828125 L 69.011719 58.488281 L 2.050781 59.976562 L 0.734375 0.660156 Z M 67.691406 -0.828125 " fill-opacity="1" fill-rule="nonzero"/></g></g></g></g></g></g></g></g><g clip-path="url(#a9e9b289df)"><g clip-path="url(#c9fa9bace6)"><g clip-path="url(#c919dc7ce2)"><g transform="matrix(1, 0, 0, 1, 264, 96)"><g clip-path="url(#02b7089fe8)"><g clip-path="url(#410d82bd36)"><g clip-path="url(#b0d2a94cf5)"><g clip-path="url(#af72ee2d28)"><path fill="#155dfc" d="M 52.136719 -16.21875 L 87.726562 92.511719 L 36.085938 109.414062 L 0.496094 0.683594 Z M 52.136719 -16.21875 " fill-opacity="1" fill-rule="nonzero"/></g></g></g></g></g></g></g></g><g clip-path="url(#3582e03220)"><g clip-path="url(#5b1ead8f12)"><g clip-path="url(#afdb92c35b)"><g transform="matrix(1, 0, 0, 1, 231, 132)"><g clip-path="url(#26bb52ea78)"><g clip-path="url(#32a28b2a91)"><g clip-path="url(#0298f96b27)"><g clip-path="url(#3438c29abb)"><path fill="#155dfc" d="M 85.714844 47.863281 L 44.019531 86.195312 L 0.746094 39.121094 L 42.445312 0.789062 Z M 85.714844 47.863281 " fill-opacity="1" fill-rule="nonzero"/></g></g></g></g></g></g></g></g><g clip-path="url(#fcac728df0)"><g clip-path="url(#c0b34b57c5)"><g clip-path="url(#d42408b2e0)"><g transform="matrix(1, 0, 0, 1, 289, 205)"><g clip-path="url(#d9f66c8b85)"><g clip-path="url(#eee4fcdbf7)"><g clip-path="url(#392202be0f)"><g clip-path="url(#e3cb10aae1)"><g clip-path="url(#eb2a130cf0)"><g clip-path="url(#bbf45ae81a)"><path fill="url(#b76d11e290)" d="M -28.933594 22.527344 L 27.460938 99.523438 L 106.832031 41.390625 L 50.4375 -35.605469 Z M -28.933594 22.527344 " fill-rule="nonzero"/></g></g></g></g></g></g></g></g></g></g><g transform="matrix(1, 0, 0, 1, 33, 152)"><g clip-path="url(#959ad6d864)"><g fill="#000000" fill-opacity="1"><g transform="translate(1.310306, 60.278947)"><g><path d="M 18.890625 0.375 C 15.691406 0.375 12.625 -0.132812 9.6875 -1.15625 C 6.757812 -2.1875 4.492188 -3.546875 2.890625 -5.234375 L 4.671875 -8.734375 C 6.234375 -7.171875 8.304688 -5.90625 10.890625 -4.9375 C 13.472656 -3.976562 16.140625 -3.5 18.890625 -3.5 C 22.742188 -3.5 25.632812 -4.207031 27.5625 -5.625 C 29.488281 -7.039062 30.453125 -8.878906 30.453125 -11.140625 C 30.453125 -12.859375 29.925781 -14.226562 28.875 -15.25 C 27.832031 -16.28125 26.550781 -17.070312 25.03125 -17.625 C 23.519531 -18.175781 21.410156 -18.78125 18.703125 -19.4375 C 15.460938 -20.257812 12.878906 -21.046875 10.953125 -21.796875 C 9.023438 -22.554688 7.375 -23.71875 6 -25.28125 C 4.625 -26.84375 3.9375 -28.957031 3.9375 -31.625 C 3.9375 -33.789062 4.507812 -35.765625 5.65625 -37.546875 C 6.800781 -39.335938 8.5625 -40.765625 10.9375 -41.828125 C 13.320312 -42.898438 16.28125 -43.4375 19.8125 -43.4375 C 22.269531 -43.4375 24.675781 -43.097656 27.03125 -42.421875 C 29.394531 -41.742188 31.4375 -40.804688 33.15625 -39.609375 L 31.625 -35.984375 C 29.8125 -37.171875 27.878906 -38.0625 25.828125 -38.65625 C 23.785156 -39.25 21.78125 -39.546875 19.8125 -39.546875 C 16.039062 -39.546875 13.195312 -38.816406 11.28125 -37.359375 C 9.375 -35.910156 8.421875 -34.035156 8.421875 -31.734375 C 8.421875 -30.015625 8.941406 -28.628906 9.984375 -27.578125 C 11.035156 -26.535156 12.347656 -25.738281 13.921875 -25.1875 C 15.503906 -24.632812 17.628906 -24.03125 20.296875 -23.375 C 23.453125 -22.59375 26.003906 -21.820312 27.953125 -21.0625 C 29.898438 -20.3125 31.550781 -19.164062 32.90625 -17.625 C 34.257812 -16.082031 34.9375 -14 34.9375 -11.375 C 34.9375 -9.207031 34.351562 -7.226562 33.1875 -5.4375 C 32.019531 -3.65625 30.222656 -2.238281 27.796875 -1.1875 C 25.378906 -0.144531 22.410156 0.375 18.890625 0.375 Z M 18.890625 0.375 "/></g></g></g><g fill="#000000" fill-opacity="1"><g transform="translate(39.135615, 60.278947)"><g><path d="M 19.3125 0.3125 C 16.195312 0.3125 13.390625 -0.394531 10.890625 -1.8125 C 8.390625 -3.226562 6.421875 -5.1875 4.984375 -7.6875 C 3.546875 -10.1875 2.828125 -13.015625 2.828125 -16.171875 C 2.828125 -19.335938 3.546875 -22.171875 4.984375 -24.671875 C 6.421875 -27.171875 8.390625 -29.117188 10.890625 -30.515625 C 13.390625 -31.910156 16.195312 -32.609375 19.3125 -32.609375 C 22.425781 -32.609375 25.234375 -31.910156 27.734375 -30.515625 C 30.242188 -29.117188 32.203125 -27.171875 33.609375 -24.671875 C 35.023438 -22.171875 35.734375 -19.335938 35.734375 -16.171875 C 35.734375 -13.015625 35.023438 -10.1875 33.609375 -7.6875 C 32.203125 -5.1875 30.242188 -3.226562 27.734375 -1.8125 C 25.234375 -0.394531 22.425781 0.3125 19.3125 0.3125 Z M 19.3125 -3.5625 C 21.613281 -3.5625 23.675781 -4.082031 25.5 -5.125 C 27.320312 -6.175781 28.742188 -7.664062 29.765625 -9.59375 C 30.796875 -11.519531 31.3125 -13.710938 31.3125 -16.171875 C 31.3125 -18.640625 30.796875 -20.835938 29.765625 -22.765625 C 28.742188 -24.691406 27.320312 -26.175781 25.5 -27.21875 C 23.675781 -28.269531 21.613281 -28.796875 19.3125 -28.796875 C 17.019531 -28.796875 14.957031 -28.269531 13.125 -27.21875 C 11.300781 -26.175781 9.867188 -24.691406 8.828125 -22.765625 C 7.785156 -20.835938 7.265625 -18.640625 7.265625 -16.171875 C 7.265625 -13.710938 7.785156 -11.519531 8.828125 -9.59375 C 9.867188 -7.664062 11.300781 -6.175781 13.125 -5.125 C 14.957031 -4.082031 17.019531 -3.5625 19.3125 -3.5625 Z M 19.3125 -3.5625 "/></g></g></g><g fill="#000000" fill-opacity="1"><g transform="translate(77.698988, 60.278947)"><g><path d="M 19.5 0.3125 C 16.300781 0.3125 13.441406 -0.382812 10.921875 -1.78125 C 8.398438 -3.175781 6.421875 -5.132812 4.984375 -7.65625 C 3.546875 -10.175781 2.828125 -13.015625 2.828125 -16.171875 C 2.828125 -19.335938 3.546875 -22.171875 4.984375 -24.671875 C 6.421875 -27.171875 8.398438 -29.117188 10.921875 -30.515625 C 13.441406 -31.910156 16.300781 -32.609375 19.5 -32.609375 C 22.289062 -32.609375 24.78125 -32.0625 26.96875 -30.96875 C 29.164062 -29.882812 30.898438 -28.296875 32.171875 -26.203125 L 28.90625 -23.984375 C 27.84375 -25.585938 26.488281 -26.789062 24.84375 -27.59375 C 23.207031 -28.394531 21.425781 -28.796875 19.5 -28.796875 C 17.164062 -28.796875 15.0625 -28.269531 13.1875 -27.21875 C 11.320312 -26.175781 9.867188 -24.691406 8.828125 -22.765625 C 7.785156 -20.835938 7.265625 -18.640625 7.265625 -16.171875 C 7.265625 -13.671875 7.785156 -11.46875 8.828125 -9.5625 C 9.867188 -7.65625 11.320312 -6.175781 13.1875 -5.125 C 15.0625 -4.082031 17.164062 -3.5625 19.5 -3.5625 C 21.425781 -3.5625 23.207031 -3.953125 24.84375 -4.734375 C 26.488281 -5.515625 27.84375 -6.703125 28.90625 -8.296875 L 32.171875 -6.09375 C 30.898438 -4 29.15625 -2.40625 26.9375 -1.3125 C 24.726562 -0.226562 22.25 0.3125 19.5 0.3125 Z M 19.5 0.3125 "/></g></g></g><g fill="#000000" fill-opacity="1"><g transform="translate(112.326068, 60.278947)"><g><path d="M 10.265625 -26.015625 C 11.296875 -28.191406 12.828125 -29.832031 14.859375 -30.9375 C 16.890625 -32.050781 19.398438 -32.609375 22.390625 -32.609375 L 22.390625 -28.359375 L 21.34375 -28.421875 C 17.9375 -28.421875 15.269531 -27.375 13.34375 -25.28125 C 11.414062 -23.1875 10.453125 -20.253906 10.453125 -16.484375 L 10.453125 0 L 6.09375 0 L 6.09375 -32.359375 L 10.265625 -32.359375 Z M 10.265625 -26.015625 "/></g></g></g><g fill="#000000" fill-opacity="1"><g transform="translate(136.989399, 60.278947)"><g><path d="M 17.40625 -32.609375 C 21.632812 -32.609375 24.875 -31.550781 27.125 -29.4375 C 29.382812 -27.320312 30.515625 -24.191406 30.515625 -20.046875 L 30.515625 0 L 26.328125 0 L 26.328125 -5.046875 C 25.347656 -3.359375 23.898438 -2.039062 21.984375 -1.09375 C 20.078125 -0.15625 17.8125 0.3125 15.1875 0.3125 C 11.582031 0.3125 8.710938 -0.546875 6.578125 -2.265625 C 4.453125 -3.992188 3.390625 -6.273438 3.390625 -9.109375 C 3.390625 -11.847656 4.378906 -14.054688 6.359375 -15.734375 C 8.347656 -17.421875 11.519531 -18.265625 15.875 -18.265625 L 26.140625 -18.265625 L 26.140625 -20.234375 C 26.140625 -23.023438 25.359375 -25.148438 23.796875 -26.609375 C 22.242188 -28.066406 19.972656 -28.796875 16.984375 -28.796875 C 14.929688 -28.796875 12.960938 -28.457031 11.078125 -27.78125 C 9.191406 -27.101562 7.570312 -26.164062 6.21875 -24.96875 L 4.25 -28.234375 C 5.882812 -29.628906 7.847656 -30.707031 10.140625 -31.46875 C 12.441406 -32.226562 14.863281 -32.609375 17.40625 -32.609375 Z M 15.875 -3.140625 C 18.332031 -3.140625 20.441406 -3.703125 22.203125 -4.828125 C 23.972656 -5.953125 25.285156 -7.582031 26.140625 -9.71875 L 26.140625 -15.015625 L 16 -15.015625 C 10.457031 -15.015625 7.6875 -13.085938 7.6875 -9.234375 C 7.6875 -7.335938 8.40625 -5.847656 9.84375 -4.765625 C 11.28125 -3.679688 13.289062 -3.140625 15.875 -3.140625 Z M 15.875 -3.140625 "/></g></g></g><g fill="#000000" fill-opacity="1"><g transform="translate(173.277092, 60.278947)"><g><path d="M 23.125 -1.96875 C 22.3125 -1.226562 21.296875 -0.660156 20.078125 -0.265625 C 18.867188 0.117188 17.609375 0.3125 16.296875 0.3125 C 13.265625 0.3125 10.925781 -0.503906 9.28125 -2.140625 C 7.644531 -3.785156 6.828125 -6.109375 6.828125 -9.109375 L 6.828125 -28.671875 L 1.046875 -28.671875 L 1.046875 -32.359375 L 6.828125 -32.359375 L 6.828125 -39.4375 L 11.203125 -39.4375 L 11.203125 -32.359375 L 21.03125 -32.359375 L 21.03125 -28.671875 L 11.203125 -28.671875 L 11.203125 -9.34375 C 11.203125 -7.414062 11.679688 -5.945312 12.640625 -4.9375 C 13.609375 -3.9375 14.992188 -3.4375 16.796875 -3.4375 C 17.691406 -3.4375 18.5625 -3.582031 19.40625 -3.875 C 20.25 -4.164062 20.976562 -4.578125 21.59375 -5.109375 Z M 23.125 -1.96875 "/></g></g></g><g fill="#ffffff" fill-opacity="1"><g transform="translate(198.260989, 60.278947)"><g><path d="M 7.015625 -43.0625 L 11.5625 -43.0625 L 11.5625 0 L 7.015625 0 Z M 7.015625 -43.0625 "/></g></g></g><g fill="#ffffff" fill-opacity="1"><g transform="translate(216.835373, 60.278947)"><g><path d="M 23.125 -1.96875 C 22.3125 -1.226562 21.296875 -0.660156 20.078125 -0.265625 C 18.867188 0.117188 17.609375 0.3125 16.296875 0.3125 C 13.265625 0.3125 10.925781 -0.503906 9.28125 -2.140625 C 7.644531 -3.785156 6.828125 -6.109375 6.828125 -9.109375 L 6.828125 -28.671875 L 1.046875 -28.671875 L 1.046875 -32.359375 L 6.828125 -32.359375 L 6.828125 -39.4375 L 11.203125 -39.4375 L 11.203125 -32.359375 L 21.03125 -32.359375 L 21.03125 -28.671875 L 11.203125 -28.671875 L 11.203125 -9.34375 C 11.203125 -7.414062 11.679688 -5.945312 12.640625 -4.9375 C 13.609375 -3.9375 14.992188 -3.4375 16.796875 -3.4375 C 17.691406 -3.4375 18.5625 -3.582031 19.40625 -3.875 C 20.25 -4.164062 20.976562 -4.578125 21.59375 -5.109375 Z M 23.125 -1.96875 "/></g></g></g><g fill="#ffffff" fill-opacity="1"><g transform="translate(241.806229, 60.278947)"><g><path d="M 6.515625 0.3125 C 5.617188 0.3125 4.851562 -0.015625 4.21875 -0.671875 C 3.582031 -1.328125 3.265625 -2.128906 3.265625 -3.078125 C 3.265625 -4.015625 3.582031 -4.800781 4.21875 -5.4375 C 4.851562 -6.070312 5.617188 -6.390625 6.515625 -6.390625 C 7.421875 -6.390625 8.203125 -6.070312 8.859375 -5.4375 C 9.515625 -4.800781 9.84375 -4.015625 9.84375 -3.078125 C 9.84375 -2.128906 9.515625 -1.328125 8.859375 -0.671875 C 8.203125 -0.015625 7.421875 0.3125 6.515625 0.3125 Z M 6.515625 0.3125 "/></g></g></g><g fill="#ffffff" fill-opacity="1"><g transform="translate(254.845198, 60.278947)"><g><path d="M 17.40625 -32.609375 C 21.632812 -32.609375 24.875 -31.550781 27.125 -29.4375 C 29.382812 -27.320312 30.515625 -24.191406 30.515625 -20.046875 L 30.515625 0 L 26.328125 0 L 26.328125 -5.046875 C 25.347656 -3.359375 23.898438 -2.039062 21.984375 -1.09375 C 20.078125 -0.15625 17.8125 0.3125 15.1875 0.3125 C 11.582031 0.3125 8.710938 -0.546875 6.578125 -2.265625 C 4.453125 -3.992188 3.390625 -6.273438 3.390625 -9.109375 C 3.390625 -11.847656 4.378906 -14.054688 6.359375 -15.734375 C 8.347656 -17.421875 11.519531 -18.265625 15.875 -18.265625 L 26.140625 -18.265625 L 26.140625 -20.234375 C 26.140625 -23.023438 25.359375 -25.148438 23.796875 -26.609375 C 22.242188 -28.066406 19.972656 -28.796875 16.984375 -28.796875 C 14.929688 -28.796875 12.960938 -28.457031 11.078125 -27.78125 C 9.191406 -27.101562 7.570312 -26.164062 6.21875 -24.96875 L 4.25 -28.234375 C 5.882812 -29.628906 7.847656 -30.707031 10.140625 -31.46875 C 12.441406 -32.226562 14.863281 -32.609375 17.40625 -32.609375 Z M 15.875 -3.140625 C 18.332031 -3.140625 20.441406 -3.703125 22.203125 -4.828125 C 23.972656 -5.953125 25.285156 -7.582031 26.140625 -9.71875 L 26.140625 -15.015625 L 16 -15.015625 C 10.457031 -15.015625 7.6875 -13.085938 7.6875 -9.234375 C 7.6875 -7.335938 8.40625 -5.847656 9.84375 -4.765625 C 11.28125 -3.679688 13.289062 -3.140625 15.875 -3.140625 Z M 15.875 -3.140625 "/></g></g></g><g fill="#ffffff" fill-opacity="1"><g transform="translate(291.132891, 60.278947)"><g><path d="M 6.09375 -32.359375 L 10.453125 -32.359375 L 10.453125 0 L 6.09375 0 Z M 8.3125 -39.4375 C 7.40625 -39.4375 6.644531 -39.742188 6.03125 -40.359375 C 5.414062 -40.972656 5.109375 -41.707031 5.109375 -42.5625 C 5.109375 -43.382812 5.414062 -44.101562 6.03125 -44.71875 C 6.644531 -45.332031 7.40625 -45.640625 8.3125 -45.640625 C 9.21875 -45.640625 9.976562 -45.34375 10.59375 -44.75 C 11.207031 -44.15625 11.515625 -43.445312 11.515625 -42.625 C 11.515625 -41.726562 11.207031 -40.972656 10.59375 -40.359375 C 9.976562 -39.742188 9.21875 -39.4375 8.3125 -39.4375 Z M 8.3125 -39.4375 "/></g></g></g></g></g></svg>