<svg xmlns="http://www.w3.org/2000/svg" xmlns:xlink="http://www.w3.org/1999/xlink" width="500" zoomAndPan="magnify" viewBox="0 0 375 225" height="300" preserveAspectRatio="xMidYMid meet" version="1.0"><defs><g/><clipPath id="100ee96e01"><path d="M 34.5 1.082031 L 95.941406 1.082031 L 95.941406 85.5625 L 34.5 85.5625 Z M 34.5 1.082031 " clip-rule="nonzero"/></clipPath><clipPath id="bc8a430c23"><path d="M 95.941406 85.410156 L 34.5 85.410156 L 34.5 1.082031 Z M 95.941406 85.410156 " clip-rule="nonzero"/></clipPath><clipPath id="4ee7ce8508"><path d="M 0.5 0.0820312 L 61.941406 0.0820312 L 61.941406 84.441406 L 0.5 84.441406 Z M 0.5 0.0820312 " clip-rule="nonzero"/></clipPath><clipPath id="fd14da5f99"><path d="M 61.941406 84.410156 L 0.5 84.410156 L 0.5 0.0820312 Z M 61.941406 84.410156 " clip-rule="nonzero"/></clipPath><clipPath id="4e0e8eee53"><rect x="0" width="62" y="0" height="85"/></clipPath><clipPath id="dcb739f18a"><path d="M 18.179688 7.25 L 95.941406 7.25 L 95.941406 114 L 18.179688 114 Z M 18.179688 7.25 " clip-rule="nonzero"/></clipPath><clipPath id="b2740ab352"><path d="M 95.941406 113.980469 L 18.179688 113.980469 L 18.179688 7.25 Z M 95.941406 113.980469 " clip-rule="nonzero"/></clipPath><clipPath id="a3ec21cef9"><path d="M 0.179688 0.25 L 77.941406 0.25 L 77.941406 107 L 0.179688 107 Z M 0.179688 0.25 " clip-rule="nonzero"/></clipPath><clipPath id="5c602d1a81"><path d="M 77.941406 106.980469 L 0.179688 106.980469 L 0.179688 0.25 Z M 77.941406 106.980469 " clip-rule="nonzero"/></clipPath><clipPath id="1a32b38d45"><rect x="0" width="78" y="0" height="107"/></clipPath><clipPath id="56708ba25d"><path d="M 1.042969 20.574219 L 91.902344 20.574219 L 91.902344 145.511719 L 1.042969 145.511719 Z M 1.042969 20.574219 " clip-rule="nonzero"/></clipPath><clipPath id="d3e51a0b2c"><path d="M 91.902344 145.285156 L 1.042969 145.285156 L 1.042969 20.574219 Z M 91.902344 145.285156 " clip-rule="nonzero"/></clipPath><clipPath id="fe187689e6"><path d="M 0.0429688 0.574219 L 90.902344 0.574219 L 90.902344 125.441406 L 0.0429688 125.441406 Z M 0.0429688 0.574219 " clip-rule="nonzero"/></clipPath><clipPath id="190223502b"><path d="M 90.902344 125.285156 L 0.0429688 125.285156 L 0.0429688 0.574219 Z M 90.902344 125.285156 " clip-rule="nonzero"/></clipPath><clipPath id="dfe0b029de"><rect x="0" width="91" y="0" height="126"/></clipPath><clipPath id="9c07ddefec"><rect x="0" width="97" y="0" height="146"/></clipPath><clipPath id="e5d09ea9dc"><rect x="0" width="337" y="0" height="101"/></clipPath></defs><g transform="matrix(1, 0, 0, 1, 278, 18)"><g clip-path="url(#9c07ddefec)"><g clip-path="url(#100ee96e01)"><g clip-path="url(#bc8a430c23)"><g transform="matrix(1, 0, 0, 1, 34, 1)"><g clip-path="url(#4e0e8eee53)"><g clip-path="url(#4ee7ce8508)"><g clip-path="url(#fd14da5f99)"><path fill="#094adb" d="M 0.5 0.0820312 L 61.941406 0.0820312 L 61.941406 84.324219 L 0.5 84.324219 Z M 0.5 0.0820312 " fill-opacity="1" fill-rule="nonzero"/></g></g></g></g></g></g><g clip-path="url(#dcb739f18a)"><g clip-path="url(#b2740ab352)"><g transform="matrix(1, 0, 0, 1, 18, 7)"><g clip-path="url(#1a32b38d45)"><g clip-path="url(#a3ec21cef9)"><g clip-path="url(#5c602d1a81)"><path fill="#1254e6" d="M 0.179688 0.25 L 77.941406 0.25 L 77.941406 106.867188 L 0.179688 106.867188 Z M 0.179688 0.25 " fill-opacity="1" fill-rule="nonzero"/></g></g></g></g></g></g><g clip-path="url(#56708ba25d)"><g clip-path="url(#d3e51a0b2c)"><g transform="matrix(1, 0, 0, 1, 1, 20)"><g clip-path="url(#dfe0b029de)"><g clip-path="url(#fe187689e6)"><g clip-path="url(#190223502b)"><path fill="#155dfc" d="M 0.0429688 0.574219 L 90.902344 0.574219 L 90.902344 125.15625 L 0.0429688 125.15625 Z M 0.0429688 0.574219 " fill-opacity="1" fill-rule="nonzero"/></g></g></g></g></g></g></g></g><g transform="matrix(1, 0, 0, 1, 0, 75)"><g clip-path="url(#e5d09ea9dc)"><g fill="#000000" fill-opacity="1"><g transform="translate(1.059828, 79.643268)"><g><path d="M 25.296875 0.5 C 21.015625 0.5 16.910156 -0.1875 12.984375 -1.5625 C 9.054688 -2.9375 6.019531 -4.75 3.875 -7 L 6.265625 -11.703125 C 8.347656 -9.617188 11.117188 -7.929688 14.578125 -6.640625 C 18.046875 -5.347656 21.617188 -4.703125 25.296875 -4.703125 C 30.460938 -4.703125 34.335938 -5.648438 36.921875 -7.546875 C 39.503906 -9.441406 40.796875 -11.898438 40.796875 -14.921875 C 40.796875 -17.222656 40.09375 -19.0625 38.6875 -20.4375 C 37.289062 -21.8125 35.578125 -22.867188 33.546875 -23.609375 C 31.515625 -24.347656 28.6875 -25.160156 25.0625 -26.046875 C 20.71875 -27.140625 17.253906 -28.195312 14.671875 -29.21875 C 12.085938 -30.238281 9.875 -31.789062 8.03125 -33.875 C 6.195312 -35.957031 5.28125 -38.785156 5.28125 -42.359375 C 5.28125 -45.273438 6.046875 -47.925781 7.578125 -50.3125 C 9.117188 -52.707031 11.484375 -54.617188 14.671875 -56.046875 C 17.859375 -57.472656 21.816406 -58.1875 26.546875 -58.1875 C 29.835938 -58.1875 33.0625 -57.734375 36.21875 -56.828125 C 39.382812 -55.921875 42.117188 -54.671875 44.421875 -53.078125 L 42.359375 -48.21875 C 39.941406 -49.8125 37.359375 -51.003906 34.609375 -51.796875 C 31.867188 -52.597656 29.179688 -53 26.546875 -53 C 21.484375 -53 17.675781 -52.019531 15.125 -50.0625 C 12.570312 -48.113281 11.296875 -45.601562 11.296875 -42.53125 C 11.296875 -40.21875 11.992188 -38.359375 13.390625 -36.953125 C 14.796875 -35.554688 16.554688 -34.488281 18.671875 -33.75 C 20.785156 -33.007812 23.628906 -32.195312 27.203125 -31.3125 C 31.429688 -30.269531 34.847656 -29.238281 37.453125 -28.21875 C 40.066406 -27.207031 42.28125 -25.671875 44.09375 -23.609375 C 45.90625 -21.546875 46.8125 -18.757812 46.8125 -15.25 C 46.8125 -12.332031 46.03125 -9.675781 44.46875 -7.28125 C 42.90625 -4.894531 40.5 -3 37.25 -1.59375 C 34.007812 -0.195312 30.023438 0.5 25.296875 0.5 Z M 25.296875 0.5 "/></g></g></g><g fill="#000000" fill-opacity="1"><g transform="translate(53.223717, 79.643268)"><g><path d="M 25.875 0.40625 C 21.695312 0.40625 17.929688 -0.539062 14.578125 -2.4375 C 11.234375 -4.332031 8.597656 -6.953125 6.671875 -10.296875 C 4.753906 -13.648438 3.796875 -17.441406 3.796875 -21.671875 C 3.796875 -25.898438 4.753906 -29.691406 6.671875 -33.046875 C 8.597656 -36.398438 11.234375 -39.007812 14.578125 -40.875 C 17.929688 -42.75 21.695312 -43.6875 25.875 -43.6875 C 30.050781 -43.6875 33.816406 -42.75 37.171875 -40.875 C 40.523438 -39.007812 43.148438 -36.398438 45.046875 -33.046875 C 46.941406 -29.691406 47.890625 -25.898438 47.890625 -21.671875 C 47.890625 -17.441406 46.941406 -13.648438 45.046875 -10.296875 C 43.148438 -6.953125 40.523438 -4.332031 37.171875 -2.4375 C 33.816406 -0.539062 30.050781 0.40625 25.875 0.40625 Z M 25.875 -4.78125 C 28.957031 -4.78125 31.71875 -5.476562 34.15625 -6.875 C 36.601562 -8.28125 38.515625 -10.273438 39.890625 -12.859375 C 41.265625 -15.441406 41.953125 -18.378906 41.953125 -21.671875 C 41.953125 -24.972656 41.265625 -27.914062 39.890625 -30.5 C 38.515625 -33.082031 36.601562 -35.070312 34.15625 -36.46875 C 31.71875 -37.875 28.957031 -38.578125 25.875 -38.578125 C 22.800781 -38.578125 20.039062 -37.875 17.59375 -36.46875 C 15.144531 -35.070312 13.21875 -33.082031 11.8125 -30.5 C 10.414062 -27.914062 9.71875 -24.972656 9.71875 -21.671875 C 9.71875 -18.378906 10.414062 -15.441406 11.8125 -12.859375 C 13.21875 -10.273438 15.144531 -8.28125 17.59375 -6.875 C 20.039062 -5.476562 22.800781 -4.78125 25.875 -4.78125 Z M 25.875 -4.78125 "/></g></g></g><g fill="#000000" fill-opacity="1"><g transform="translate(106.376497, 79.643268)"><g><path d="M 26.125 0.40625 C 21.84375 0.40625 18.007812 -0.523438 14.625 -2.390625 C 11.25 -4.253906 8.597656 -6.875 6.671875 -10.25 C 4.753906 -13.632812 3.796875 -17.441406 3.796875 -21.671875 C 3.796875 -25.898438 4.753906 -29.691406 6.671875 -33.046875 C 8.597656 -36.398438 11.25 -39.007812 14.625 -40.875 C 18.007812 -42.75 21.84375 -43.6875 26.125 -43.6875 C 29.863281 -43.6875 33.203125 -42.957031 36.140625 -41.5 C 39.078125 -40.039062 41.398438 -37.910156 43.109375 -35.109375 L 38.734375 -32.140625 C 37.304688 -34.285156 35.492188 -35.894531 33.296875 -36.96875 C 31.097656 -38.039062 28.707031 -38.578125 26.125 -38.578125 C 22.988281 -38.578125 20.171875 -37.875 17.671875 -36.46875 C 15.171875 -35.070312 13.21875 -33.082031 11.8125 -30.5 C 10.414062 -27.914062 9.71875 -24.972656 9.71875 -21.671875 C 9.71875 -18.328125 10.414062 -15.375 11.8125 -12.8125 C 13.21875 -10.257812 15.171875 -8.28125 17.671875 -6.875 C 20.171875 -5.476562 22.988281 -4.78125 26.125 -4.78125 C 28.707031 -4.78125 31.097656 -5.300781 33.296875 -6.34375 C 35.492188 -7.382812 37.304688 -8.976562 38.734375 -11.125 L 43.109375 -8.15625 C 41.398438 -5.351562 39.0625 -3.222656 36.09375 -1.765625 C 33.132812 -0.316406 29.8125 0.40625 26.125 0.40625 Z M 26.125 0.40625 "/></g></g></g><g fill="#000000" fill-opacity="1"><g transform="translate(154.255235, 79.643268)"><g><path d="M 13.765625 -34.859375 C 15.140625 -37.773438 17.1875 -39.972656 19.90625 -41.453125 C 22.625 -42.941406 25.988281 -43.6875 30 -43.6875 L 30 -38 L 28.59375 -38.078125 C 24.039062 -38.078125 20.472656 -36.675781 17.890625 -33.875 C 15.304688 -31.070312 14.015625 -27.144531 14.015625 -22.09375 L 14.015625 0 L 8.15625 0 L 8.15625 -43.359375 L 13.765625 -43.359375 Z M 13.765625 -34.859375 "/></g></g></g><g fill="#000000" fill-opacity="1"><g transform="translate(188.784053, 79.643268)"><g><path d="M 23.328125 -43.6875 C 28.984375 -43.6875 33.320312 -42.269531 36.34375 -39.4375 C 39.363281 -36.601562 40.875 -32.414062 40.875 -26.875 L 40.875 0 L 35.28125 0 L 35.28125 -6.765625 C 33.957031 -4.503906 32.019531 -2.742188 29.46875 -1.484375 C 26.914062 -0.222656 23.878906 0.40625 20.359375 0.40625 C 15.523438 0.40625 11.675781 -0.742188 8.8125 -3.046875 C 5.957031 -5.359375 4.53125 -8.410156 4.53125 -12.203125 C 4.53125 -15.878906 5.863281 -18.84375 8.53125 -21.09375 C 11.195312 -23.351562 15.441406 -24.484375 21.265625 -24.484375 L 35.03125 -24.484375 L 35.03125 -27.109375 C 35.03125 -30.847656 33.984375 -33.691406 31.890625 -35.640625 C 29.804688 -37.597656 26.757812 -38.578125 22.75 -38.578125 C 20 -38.578125 17.359375 -38.125 14.828125 -37.21875 C 12.304688 -36.3125 10.140625 -35.0625 8.328125 -33.46875 L 5.6875 -37.828125 C 7.882812 -39.703125 10.519531 -41.144531 13.59375 -42.15625 C 16.675781 -43.175781 19.921875 -43.6875 23.328125 -43.6875 Z M 21.265625 -4.203125 C 24.554688 -4.203125 27.382812 -4.957031 29.75 -6.46875 C 32.113281 -7.976562 33.875 -10.160156 35.03125 -13.015625 L 35.03125 -20.109375 L 21.421875 -20.109375 C 14.003906 -20.109375 10.296875 -17.523438 10.296875 -12.359375 C 10.296875 -9.835938 11.257812 -7.847656 13.1875 -6.390625 C 15.113281 -4.929688 17.804688 -4.203125 21.265625 -4.203125 Z M 21.265625 -4.203125 "/></g></g></g><g fill="#000000" fill-opacity="1"><g transform="translate(238.887778, 79.643268)"><g><path d="M 30.984375 -2.640625 C 29.890625 -1.648438 28.53125 -0.894531 26.90625 -0.375 C 25.289062 0.144531 23.601562 0.40625 21.84375 0.40625 C 17.78125 0.40625 14.648438 -0.691406 12.453125 -2.890625 C 10.253906 -5.085938 9.15625 -8.191406 9.15625 -12.203125 L 9.15625 -38.40625 L 1.40625 -38.40625 L 1.40625 -43.359375 L 9.15625 -43.359375 L 9.15625 -52.828125 L 15 -52.828125 L 15 -43.359375 L 28.1875 -43.359375 L 28.1875 -38.40625 L 15 -38.40625 L 15 -12.53125 C 15 -9.945312 15.644531 -7.976562 16.9375 -6.625 C 18.226562 -5.28125 20.082031 -4.609375 22.5 -4.609375 C 23.707031 -4.609375 24.875 -4.800781 26 -5.1875 C 27.125 -5.570312 28.101562 -6.125 28.9375 -6.84375 Z M 30.984375 -2.640625 "/></g></g></g><g fill="#ffffff" fill-opacity="1"><g transform="translate(273.83433, 79.643268)"><g><path d="M 9.390625 -57.6875 L 15.5 -57.6875 L 15.5 0 L 9.390625 0 Z M 9.390625 -57.6875 "/></g></g></g><g fill="#ffffff" fill-opacity="1"><g transform="translate(300.204858, 79.643268)"><g><path d="M 30.984375 -2.640625 C 29.890625 -1.648438 28.53125 -0.894531 26.90625 -0.375 C 25.289062 0.144531 23.601562 0.40625 21.84375 0.40625 C 17.78125 0.40625 14.648438 -0.691406 12.453125 -2.890625 C 10.253906 -5.085938 9.15625 -8.191406 9.15625 -12.203125 L 9.15625 -38.40625 L 1.40625 -38.40625 L 1.40625 -43.359375 L 9.15625 -43.359375 L 9.15625 -52.828125 L 15 -52.828125 L 15 -43.359375 L 28.1875 -43.359375 L 28.1875 -38.40625 L 15 -38.40625 L 15 -12.53125 C 15 -9.945312 15.644531 -7.976562 16.9375 -6.625 C 18.226562 -5.28125 20.082031 -4.609375 22.5 -4.609375 C 23.707031 -4.609375 24.875 -4.800781 26 -5.1875 C 27.125 -5.570312 28.101562 -6.125 28.9375 -6.84375 Z M 30.984375 -2.640625 "/></g></g></g></g></g></svg>