<svg xmlns="http://www.w3.org/2000/svg" xmlns:xlink="http://www.w3.org/1999/xlink" width="500" zoomAndPan="magnify" viewBox="0 0 375 225" height="300" preserveAspectRatio="xMidYMid meet" version="1.0"><defs><g/><clipPath id="80d2cf37f3"><path d="M 15.738281 10.617188 L 20.785156 10.617188 L 20.785156 64.339844 L 15.738281 64.339844 Z M 15.738281 10.617188 " clip-rule="nonzero"/></clipPath><clipPath id="ccf0b02c51"><path d="M 0.738281 0.617188 L 5.785156 0.617188 L 5.785156 54.339844 L 0.738281 54.339844 Z M 0.738281 0.617188 " clip-rule="nonzero"/></clipPath><clipPath id="21a581c048"><rect x="0" width="6" y="0" height="55"/></clipPath><clipPath id="cd6b3fad56"><path d="M 24.535156 10.617188 L 29.582031 10.617188 L 29.582031 64.339844 L 24.535156 64.339844 Z M 24.535156 10.617188 " clip-rule="nonzero"/></clipPath><clipPath id="e7270e49d9"><path d="M 0.535156 0.617188 L 5.582031 0.617188 L 5.582031 54.339844 L 0.535156 54.339844 Z M 0.535156 0.617188 " clip-rule="nonzero"/></clipPath><clipPath id="f94a32702b"><rect x="0" width="6" y="0" height="55"/></clipPath><clipPath id="5b0ff53685"><path d="M 34.839844 10.617188 L 39.886719 10.617188 L 39.886719 64.339844 L 34.839844 64.339844 Z M 34.839844 10.617188 " clip-rule="nonzero"/></clipPath><clipPath id="baee2d1410"><path d="M 0.839844 0.617188 L 5.886719 0.617188 L 5.886719 54.339844 L 0.839844 54.339844 Z M 0.839844 0.617188 " clip-rule="nonzero"/></clipPath><clipPath id="78301467a3"><rect x="0" width="6" y="0" height="55"/></clipPath><clipPath id="b5c907c90c"><path d="M 0.195312 0.921875 L 53.917969 0.921875 L 53.917969 5.96875 L 0.195312 5.96875 Z M 0.195312 0.921875 " clip-rule="nonzero"/></clipPath><clipPath id="aa309cb6ec"><path d="M 0.195312 0.921875 L 53.917969 0.921875 L 53.917969 5.96875 L 0.195312 5.96875 Z M 0.195312 0.921875 " clip-rule="nonzero"/></clipPath><clipPath id="cdc175818e"><rect x="0" width="54" y="0" height="6"/></clipPath><clipPath id="f129aa5be3"><path d="M 0.195312 67.027344 L 53.917969 67.027344 L 53.917969 72.074219 L 0.195312 72.074219 Z M 0.195312 67.027344 " clip-rule="nonzero"/></clipPath><clipPath id="0e7e664aaa"><path d="M 0.195312 0.0273438 L 53.917969 0.0273438 L 53.917969 5.074219 L 0.195312 5.074219 Z M 0.195312 0.0273438 " clip-rule="nonzero"/></clipPath><clipPath id="7b4a0869bb"><rect x="0" width="54" y="0" height="6"/></clipPath><clipPath id="f1f3f16b45"><rect x="0" width="55" y="0" height="73"/></clipPath></defs><g fill="#000000" fill-opacity="1"><g transform="translate(15.4827, 140.625004)"><g><path d="M 19.109375 1.078125 C 14.046875 1.078125 9.039062 0.21875 4.09375 -1.5 L 2.84375 -15.4375 L 5.75 -15.84375 C 6.363281 -11.625 8.070312 -8.46875 10.875 -6.375 C 13.6875 -4.289062 17.207031 -3.25 21.4375 -3.25 C 25.5 -3.25 28.722656 -4.289062 31.109375 -6.375 C 33.503906 -8.46875 34.703125 -11.097656 34.703125 -14.265625 C 34.703125 -16.878906 34.117188 -18.851562 32.953125 -20.1875 C 31.785156 -21.519531 30.113281 -22.578125 27.9375 -23.359375 C 25.769531 -24.140625 23.210938 -25 20.265625 -25.9375 C 15.265625 -27.550781 11.46875 -29.59375 8.875 -32.0625 C 6.289062 -34.539062 5 -37.925781 5 -42.21875 C 5 -45.269531 5.832031 -48.03125 7.5 -50.5 C 9.175781 -52.976562 11.488281 -54.941406 14.4375 -56.390625 C 17.382812 -57.835938 20.71875 -58.5625 24.4375 -58.5625 C 27.050781 -58.5625 29.46875 -58.351562 31.6875 -57.9375 C 33.914062 -57.519531 36.117188 -57.003906 38.296875 -56.390625 L 39.703125 -44.625 L 36.953125 -44.046875 C 35.953125 -47.609375 34.328125 -50.179688 32.078125 -51.765625 C 29.828125 -53.347656 26.945312 -54.140625 23.4375 -54.140625 C 19.769531 -54.140625 16.863281 -53.222656 14.71875 -51.390625 C 12.582031 -49.554688 11.515625 -47.300781 11.515625 -44.625 C 11.515625 -42.125 12.265625 -40.175781 13.765625 -38.78125 C 15.265625 -37.394531 17.304688 -36.226562 19.890625 -35.28125 C 22.484375 -34.34375 25.445312 -33.289062 28.78125 -32.125 C 33.0625 -30.613281 36.257812 -28.675781 38.375 -26.3125 C 40.488281 -23.957031 41.546875 -20.882812 41.546875 -17.09375 C 41.546875 -13.644531 40.65625 -10.546875 38.875 -7.796875 C 37.09375 -5.046875 34.519531 -2.878906 31.15625 -1.296875 C 27.789062 0.285156 23.773438 1.078125 19.109375 1.078125 Z M 19.109375 1.078125 "/></g></g></g><g fill="#000000" fill-opacity="1"><g transform="translate(62.11133, 140.625004)"><g><path d="M 22.6875 1.078125 C 18.738281 1.078125 15.265625 0.175781 12.265625 -1.625 C 9.265625 -3.4375 6.925781 -5.910156 5.25 -9.046875 C 3.582031 -12.191406 2.75 -15.710938 2.75 -19.609375 C 2.75 -23.660156 3.707031 -27.3125 5.625 -30.5625 C 7.550781 -33.820312 10.082031 -36.394531 13.21875 -38.28125 C 16.363281 -40.175781 19.769531 -41.125 23.4375 -41.125 C 27.382812 -41.125 30.847656 -40.21875 33.828125 -38.40625 C 36.804688 -36.601562 39.128906 -34.1875 40.796875 -31.15625 C 42.460938 -28.125 43.296875 -24.773438 43.296875 -21.109375 C 43.296875 -16.929688 42.378906 -13.175781 40.546875 -9.84375 C 38.710938 -6.507812 36.25 -3.851562 33.15625 -1.875 C 30.070312 0.09375 26.582031 1.078125 22.6875 1.078125 Z M 23.53125 -2.921875 C 27.144531 -2.921875 30.128906 -4.28125 32.484375 -7 C 34.847656 -9.726562 36.03125 -13.625 36.03125 -18.6875 C 36.03125 -22.300781 35.429688 -25.484375 34.234375 -28.234375 C 33.046875 -30.992188 31.40625 -33.164062 29.3125 -34.75 C 27.226562 -36.332031 24.851562 -37.125 22.1875 -37.125 C 18.738281 -37.125 15.890625 -35.816406 13.640625 -33.203125 C 11.390625 -30.585938 10.265625 -26.914062 10.265625 -22.1875 C 10.265625 -18.289062 10.832031 -14.894531 11.96875 -12 C 13.113281 -9.113281 14.6875 -6.878906 16.6875 -5.296875 C 18.6875 -3.710938 20.96875 -2.921875 23.53125 -2.921875 Z M 23.53125 -2.921875 "/></g></g></g><g fill="#000000" fill-opacity="1"><g transform="translate(109.574096, 140.625004)"><g><path d="M 20.859375 1.171875 C 17.296875 1.171875 14.148438 0.296875 11.421875 -1.453125 C 8.703125 -3.210938 6.578125 -5.617188 5.046875 -8.671875 C 3.515625 -11.734375 2.75 -15.238281 2.75 -19.1875 C 2.75 -23.300781 3.734375 -27.023438 5.703125 -30.359375 C 7.679688 -33.703125 10.335938 -36.34375 13.671875 -38.28125 C 17.015625 -40.226562 20.71875 -41.203125 24.78125 -41.203125 C 28 -41.203125 30.441406 -40.757812 32.109375 -39.875 C 33.785156 -38.988281 34.625 -37.738281 34.625 -36.125 C 34.625 -34.957031 34.257812 -33.984375 33.53125 -33.203125 C 32.8125 -32.421875 32.035156 -32.03125 31.203125 -32.03125 C 30.640625 -32.03125 29.925781 -32.390625 29.0625 -33.109375 C 28.207031 -33.835938 27.140625 -34.5625 25.859375 -35.28125 C 24.578125 -36.007812 22.992188 -36.375 21.109375 -36.375 C 17.878906 -36.375 15.164062 -35.078125 12.96875 -32.484375 C 10.769531 -29.898438 9.671875 -26.382812 9.671875 -21.9375 C 9.671875 -16.375 10.921875 -12.0625 13.421875 -9 C 15.929688 -5.945312 19.382812 -4.421875 23.78125 -4.421875 C 25.5 -4.421875 27.375 -4.695312 29.40625 -5.25 C 31.4375 -5.8125 33.367188 -6.59375 35.203125 -7.59375 L 36.796875 -5.25 C 33.566406 -2.695312 30.644531 -0.988281 28.03125 -0.125 C 25.414062 0.738281 23.023438 1.171875 20.859375 1.171875 Z M 20.859375 1.171875 "/></g></g></g><g fill="#000000" fill-opacity="1"><g transform="translate(150.530577, 140.625004)"><g><path d="M 27.703125 -40.953125 C 29.203125 -40.953125 30.394531 -40.601562 31.28125 -39.90625 C 32.175781 -39.21875 32.625 -38.148438 32.625 -36.703125 C 32.625 -35.648438 32.316406 -34.71875 31.703125 -33.90625 C 31.085938 -33.101562 30.304688 -32.703125 29.359375 -32.703125 C 29.023438 -32.703125 28.609375 -32.894531 28.109375 -33.28125 C 27.609375 -33.675781 26.992188 -34.050781 26.265625 -34.40625 C 25.546875 -34.769531 24.660156 -34.953125 23.609375 -34.953125 C 22.210938 -34.953125 20.804688 -34.644531 19.390625 -34.03125 C 17.972656 -33.425781 16.457031 -32.566406 14.84375 -31.453125 L 14.84375 -11.09375 C 14.84375 -9.476562 14.925781 -8.15625 15.09375 -7.125 C 15.257812 -6.101562 15.734375 -5.269531 16.515625 -4.625 C 17.296875 -3.988281 18.546875 -3.394531 20.265625 -2.84375 L 20.265625 0 L 2.5 0 L 2.5 -2.84375 C 4.226562 -3.394531 5.476562 -3.988281 6.25 -4.625 C 7.03125 -5.269531 7.53125 -6.101562 7.75 -7.125 C 7.976562 -8.15625 8.117188 -9.476562 8.171875 -11.09375 L 8.171875 -29.703125 C 8.171875 -31.921875 7.640625 -33.378906 6.578125 -34.078125 C 5.523438 -34.773438 4.082031 -35.234375 2.25 -35.453125 L 2.25 -38.203125 C 4.414062 -38.484375 6.523438 -38.898438 8.578125 -39.453125 C 10.640625 -40.015625 12.453125 -40.597656 14.015625 -41.203125 L 15.34375 -40.046875 L 14.6875 -34.703125 C 15.738281 -35.484375 17 -36.359375 18.46875 -37.328125 C 19.945312 -38.304688 21.492188 -39.15625 23.109375 -39.875 C 24.722656 -40.59375 26.253906 -40.953125 27.703125 -40.953125 Z M 27.703125 -40.953125 "/></g></g></g><g fill="#000000" fill-opacity="1"><g transform="translate(187.983666, 140.625004)"><g><path d="M 37.125 -5.171875 L 38.046875 -2.75 C 36.203125 -1.582031 34.597656 -0.691406 33.234375 -0.078125 C 31.878906 0.523438 30.726562 0.828125 29.78125 0.828125 C 28.113281 0.828125 26.875 0.328125 26.0625 -0.671875 C 25.257812 -1.671875 24.71875 -3.003906 24.4375 -4.671875 C 21.820312 -2.890625 19.609375 -1.550781 17.796875 -0.65625 C 15.992188 0.226562 14.234375 0.671875 12.515625 0.671875 C 10.398438 0.671875 8.519531 0.15625 6.875 -0.875 C 5.238281 -1.90625 3.960938 -3.269531 3.046875 -4.96875 C 2.128906 -6.664062 1.671875 -8.457031 1.671875 -10.34375 C 1.671875 -12.507812 2.488281 -14.273438 4.125 -15.640625 C 5.769531 -17.003906 8.285156 -18.226562 11.671875 -19.3125 C 15.066406 -20.394531 19.378906 -21.578125 24.609375 -22.859375 L 24.78125 -28.203125 C 24.882812 -30.984375 24.3125 -32.925781 23.0625 -34.03125 C 21.8125 -35.144531 19.960938 -35.703125 17.515625 -35.703125 C 16.128906 -35.703125 14.640625 -35.546875 13.046875 -35.234375 C 11.460938 -34.929688 10.03125 -34.597656 8.75 -34.234375 C 7.476562 -33.878906 6.535156 -33.59375 5.921875 -33.375 L 4.921875 -36.03125 C 7.585938 -37.3125 10.378906 -38.453125 13.296875 -39.453125 C 16.222656 -40.453125 18.769531 -40.953125 20.9375 -40.953125 C 24.269531 -40.953125 26.878906 -39.921875 28.765625 -37.859375 C 30.660156 -35.804688 31.609375 -32.753906 31.609375 -28.703125 C 31.609375 -25.421875 31.484375 -22.179688 31.234375 -18.984375 C 30.984375 -15.785156 30.859375 -12.15625 30.859375 -8.09375 C 30.859375 -5.476562 31.613281 -4.171875 33.125 -4.171875 C 34.0625 -4.171875 35.394531 -4.503906 37.125 -5.171875 Z M 8.84375 -10.765625 C 8.84375 -8.867188 9.523438 -7.335938 10.890625 -6.171875 C 12.253906 -5.003906 13.65625 -4.421875 15.09375 -4.421875 C 16.320312 -4.421875 17.738281 -4.738281 19.34375 -5.375 C 20.957031 -6.019531 22.601562 -6.953125 24.28125 -8.171875 L 24.28125 -8.015625 L 24.53125 -19.609375 C 19.070312 -18.328125 15.09375 -17.019531 12.59375 -15.6875 C 10.09375 -14.351562 8.84375 -12.710938 8.84375 -10.765625 Z M 8.84375 -10.765625 "/></g></g></g><g fill="#000000" fill-opacity="1"><g transform="translate(227.52212, 140.625004)"><g><path d="M 26.03125 -6.25 L 27.359375 -3.59375 C 22.128906 -0.414062 17.929688 1.171875 14.765625 1.171875 C 11.703125 1.171875 9.570312 0.128906 8.375 -1.953125 C 7.1875 -4.046875 6.59375 -7.203125 6.59375 -11.421875 L 6.59375 -35.28125 L 1.671875 -35.28125 L 1.671875 -38.203125 C 4.003906 -38.597656 6.171875 -39.546875 8.171875 -41.046875 C 10.171875 -42.546875 11.285156 -44.828125 11.515625 -47.890625 L 14.1875 -47.890625 L 13.4375 -38.875 L 24.78125 -39.453125 L 24.78125 -35.28125 L 13.265625 -35.28125 L 13.265625 -18.609375 C 13.265625 -13.710938 13.566406 -10.023438 14.171875 -7.546875 C 14.785156 -5.078125 16.398438 -3.84375 19.015625 -3.84375 C 19.960938 -3.84375 21.003906 -4.050781 22.140625 -4.46875 C 23.285156 -4.882812 24.582031 -5.476562 26.03125 -6.25 Z M 26.03125 -6.25 "/></g></g></g><g fill="#000000" fill-opacity="1"><g transform="translate(257.228788, 140.625004)"><g/></g></g><g fill="#000000" fill-opacity="1"><g transform="translate(281.919529, 140.625004)"><g/></g></g><g fill="#000000" fill-opacity="1"><g transform="translate(306.610271, 140.625004)"><g/></g></g><g fill="#000000" fill-opacity="1"><g transform="translate(331.302999, 140.625004)"><g><path d="M 26.03125 -6.25 L 27.359375 -3.59375 C 22.128906 -0.414062 17.929688 1.171875 14.765625 1.171875 C 11.703125 1.171875 9.570312 0.128906 8.375 -1.953125 C 7.1875 -4.046875 6.59375 -7.203125 6.59375 -11.421875 L 6.59375 -35.28125 L 1.671875 -35.28125 L 1.671875 -38.203125 C 4.003906 -38.597656 6.171875 -39.546875 8.171875 -41.046875 C 10.171875 -42.546875 11.285156 -44.828125 11.515625 -47.890625 L 14.1875 -47.890625 L 13.4375 -38.875 L 24.78125 -39.453125 L 24.78125 -35.28125 L 13.265625 -35.28125 L 13.265625 -18.609375 C 13.265625 -13.710938 13.566406 -10.023438 14.171875 -7.546875 C 14.785156 -5.078125 16.398438 -3.84375 19.015625 -3.84375 C 19.960938 -3.84375 21.003906 -4.050781 22.140625 -4.46875 C 23.285156 -4.882812 24.582031 -5.476562 26.03125 -6.25 Z M 26.03125 -6.25 "/></g></g></g><g transform="matrix(1, 0, 0, 1, 281, 76)"><g clip-path="url(#f1f3f16b45)"><g clip-path="url(#80d2cf37f3)"><g transform="matrix(1, 0, 0, 1, 15, 10)"><g clip-path="url(#21a581c048)"><g clip-path="url(#ccf0b02c51)"><path fill="#094adb" d="M 0.738281 0.617188 L 5.785156 0.617188 L 5.785156 54.332031 L 0.738281 54.332031 Z M 0.738281 0.617188 " fill-opacity="1" fill-rule="nonzero"/></g></g></g></g><g clip-path="url(#cd6b3fad56)"><g transform="matrix(1, 0, 0, 1, 24, 10)"><g clip-path="url(#f94a32702b)"><g clip-path="url(#e7270e49d9)"><path fill="#094adb" d="M 0.535156 0.617188 L 5.582031 0.617188 L 5.582031 54.332031 L 0.535156 54.332031 Z M 0.535156 0.617188 " fill-opacity="1" fill-rule="nonzero"/></g></g></g></g><g clip-path="url(#5b0ff53685)"><g transform="matrix(1, 0, 0, 1, 34, 10)"><g clip-path="url(#78301467a3)"><g clip-path="url(#baee2d1410)"><path fill="#094adb" d="M 0.839844 0.617188 L 5.886719 0.617188 L 5.886719 54.332031 L 0.839844 54.332031 Z M 0.839844 0.617188 " fill-opacity="1" fill-rule="nonzero"/></g></g></g></g><g clip-path="url(#b5c907c90c)"><g transform="matrix(1, 0, 0, 1, 0, -0.000000000000014211)"><g clip-path="url(#cdc175818e)"><g clip-path="url(#aa309cb6ec)"><path fill="#094adb" d="M 0.195312 5.96875 L 0.195312 0.921875 L 53.910156 0.921875 L 53.910156 5.96875 Z M 0.195312 5.96875 " fill-opacity="1" fill-rule="nonzero"/></g></g></g></g><g clip-path="url(#f129aa5be3)"><g transform="matrix(1, 0, 0, 1, 0, 67)"><g clip-path="url(#7b4a0869bb)"><g clip-path="url(#0e7e664aaa)"><path fill="#094adb" d="M 0.195312 5.074219 L 0.195312 0.0273438 L 53.910156 0.0273438 L 53.910156 5.074219 Z M 0.195312 5.074219 " fill-opacity="1" fill-rule="nonzero"/></g></g></g></g></g></g></svg>