<svg xmlns="http://www.w3.org/2000/svg" xmlns:xlink="http://www.w3.org/1999/xlink" width="500" zoomAndPan="magnify" viewBox="0 0 375 374.999991" height="500" preserveAspectRatio="xMidYMid meet" version="1.0"><defs><g/><clipPath id="dccfb66ff2"><path d="M 204.152344 98.640625 L 348.832031 98.640625 L 348.832031 243.320312 L 204.152344 243.320312 Z M 204.152344 98.640625 " clip-rule="nonzero"/></clipPath><clipPath id="8c9625c835"><path d="M 0.152344 0.640625 L 144.832031 0.640625 L 144.832031 145.320312 L 0.152344 145.320312 Z M 0.152344 0.640625 " clip-rule="nonzero"/></clipPath><clipPath id="06e32d59a5"><rect x="0" width="145" y="0" height="146"/></clipPath><clipPath id="c8cc831069"><path d="M 224.886719 124.09375 L 341.375 124.09375 L 341.375 286 L 224.886719 286 Z M 224.886719 124.09375 " clip-rule="nonzero"/></clipPath><clipPath id="7e8b965748"><path d="M 341.375 285.984375 L 224.886719 285.984375 L 224.886719 124.09375 Z M 341.375 285.984375 " clip-rule="nonzero"/></clipPath><clipPath id="917f0d697f"><path d="M 0.886719 0.09375 L 117.375 0.09375 L 117.375 162 L 0.886719 162 Z M 0.886719 0.09375 " clip-rule="nonzero"/></clipPath><clipPath id="ee7afa4105"><path d="M 117.375 161.984375 L 0.886719 161.984375 L 0.886719 0.09375 Z M 117.375 161.984375 " clip-rule="nonzero"/></clipPath><clipPath id="3aba00fc0d"><rect x="0" width="118" y="0" height="162"/></clipPath><clipPath id="0a9e7dce0a"><path d="M 254.269531 139.25 L 370.757812 139.25 L 370.757812 301.242188 L 254.269531 301.242188 Z M 254.269531 139.25 " clip-rule="nonzero"/></clipPath><clipPath id="82f1a02fc6"><path d="M 254.269531 139.351562 L 370.757812 139.351562 L 370.757812 301.242188 Z M 254.269531 139.351562 " clip-rule="nonzero"/></clipPath><clipPath id="db608ab0ea"><path d="M 0.269531 0.25 L 116.757812 0.25 L 116.757812 162.242188 L 0.269531 162.242188 Z M 0.269531 0.25 " clip-rule="nonzero"/></clipPath><clipPath id="3c00f5567e"><path d="M 0.269531 0.351562 L 116.757812 0.351562 L 116.757812 162.242188 Z M 0.269531 0.351562 " clip-rule="nonzero"/></clipPath><clipPath id="040f0bede5"><rect x="0" width="117" y="0" height="163"/></clipPath><clipPath id="a8c23e3868"><rect x="0" width="322" y="0" height="76"/></clipPath></defs><g clip-path="url(#dccfb66ff2)"><g transform="matrix(1, 0, 0, 1, 204, 98)"><g clip-path="url(#06e32d59a5)"><g clip-path="url(#8c9625c835)"><path fill="#094adb" d="M 0.152344 0.640625 L 144.832031 0.640625 L 144.832031 145.320312 L 0.152344 145.320312 Z M 0.152344 0.640625 " fill-opacity="1" fill-rule="nonzero"/></g></g></g></g><g clip-path="url(#c8cc831069)"><g clip-path="url(#7e8b965748)"><g transform="matrix(1, 0, 0, 1, 224, 124)"><g clip-path="url(#3aba00fc0d)"><g clip-path="url(#917f0d697f)"><g clip-path="url(#ee7afa4105)"><path fill="#2a62df" d="M 0.886719 0.09375 L 117.375 0.09375 L 117.375 162.085938 L 0.886719 162.085938 Z M 0.886719 0.09375 " fill-opacity="1" fill-rule="nonzero"/></g></g></g></g></g></g><g clip-path="url(#0a9e7dce0a)"><g clip-path="url(#82f1a02fc6)"><g transform="matrix(1, 0, 0, 1, 254, 139)"><g clip-path="url(#040f0bede5)"><g clip-path="url(#db608ab0ea)"><g clip-path="url(#3c00f5567e)"><path fill="#6fc6db" d="M 116.757812 162.242188 L 0.269531 162.242188 L 0.269531 0.25 L 116.757812 0.25 Z M 116.757812 162.242188 " fill-opacity="1" fill-rule="nonzero"/></g></g></g></g></g></g><g transform="matrix(1, 0, 0, 1, 0, 145)"><g clip-path="url(#a8c23e3868)"><g fill="#000000" fill-opacity="1"><g transform="translate(0.567529, 59.315618)"><g><path d="M 19 0.375 C 15.78125 0.375 12.695312 -0.140625 9.75 -1.171875 C 6.800781 -2.203125 4.519531 -3.566406 2.90625 -5.265625 L 4.703125 -8.796875 C 6.273438 -7.222656 8.359375 -5.953125 10.953125 -4.984375 C 13.554688 -4.015625 16.238281 -3.53125 19 -3.53125 C 22.882812 -3.53125 25.796875 -4.238281 27.734375 -5.65625 C 29.671875 -7.082031 30.640625 -8.929688 30.640625 -11.203125 C 30.640625 -12.941406 30.113281 -14.328125 29.0625 -15.359375 C 28.007812 -16.390625 26.71875 -17.179688 25.1875 -17.734375 C 23.664062 -18.296875 21.539062 -18.90625 18.8125 -19.5625 C 15.550781 -20.382812 12.953125 -21.175781 11.015625 -21.9375 C 9.078125 -22.707031 7.414062 -23.875 6.03125 -25.4375 C 4.65625 -27.007812 3.96875 -29.132812 3.96875 -31.8125 C 3.96875 -34 4.539062 -35.988281 5.6875 -37.78125 C 6.84375 -39.582031 8.617188 -41.019531 11.015625 -42.09375 C 13.410156 -43.164062 16.382812 -43.703125 19.9375 -43.703125 C 22.40625 -43.703125 24.828125 -43.359375 27.203125 -42.671875 C 29.578125 -41.992188 31.632812 -41.0625 33.375 -39.875 L 31.8125 -36.21875 C 30 -37.414062 28.0625 -38.3125 26 -38.90625 C 23.9375 -39.507812 21.914062 -39.8125 19.9375 -39.8125 C 16.132812 -39.8125 13.273438 -39.078125 11.359375 -37.609375 C 9.441406 -36.140625 8.484375 -34.25 8.484375 -31.9375 C 8.484375 -30.207031 9.007812 -28.816406 10.0625 -27.765625 C 11.113281 -26.710938 12.429688 -25.90625 14.015625 -25.34375 C 15.609375 -24.789062 17.742188 -24.1875 20.421875 -23.53125 C 23.609375 -22.738281 26.179688 -21.960938 28.140625 -21.203125 C 30.097656 -20.441406 31.753906 -19.285156 33.109375 -17.734375 C 34.472656 -16.191406 35.15625 -14.097656 35.15625 -11.453125 C 35.15625 -9.265625 34.566406 -7.269531 33.390625 -5.46875 C 32.222656 -3.675781 30.421875 -2.253906 27.984375 -1.203125 C 25.546875 -0.148438 22.550781 0.375 19 0.375 Z M 19 0.375 "/></g></g></g><g fill="#000000" fill-opacity="1"><g transform="translate(39.747328, 59.315618)"><g><path d="M 19.4375 0.3125 C 16.300781 0.3125 13.472656 -0.398438 10.953125 -1.828125 C 8.441406 -3.253906 6.460938 -5.222656 5.015625 -7.734375 C 3.566406 -10.253906 2.84375 -13.101562 2.84375 -16.28125 C 2.84375 -19.457031 3.566406 -22.300781 5.015625 -24.8125 C 6.460938 -27.332031 8.441406 -29.296875 10.953125 -30.703125 C 13.472656 -32.109375 16.300781 -32.8125 19.4375 -32.8125 C 22.570312 -32.8125 25.398438 -32.109375 27.921875 -30.703125 C 30.441406 -29.296875 32.410156 -27.332031 33.828125 -24.8125 C 35.253906 -22.300781 35.96875 -19.457031 35.96875 -16.28125 C 35.96875 -13.101562 35.253906 -10.253906 33.828125 -7.734375 C 32.410156 -5.222656 30.441406 -3.253906 27.921875 -1.828125 C 25.398438 -0.398438 22.570312 0.3125 19.4375 0.3125 Z M 19.4375 -3.59375 C 21.75 -3.59375 23.820312 -4.117188 25.65625 -5.171875 C 27.5 -6.222656 28.9375 -7.71875 29.96875 -9.65625 C 31 -11.59375 31.515625 -13.800781 31.515625 -16.28125 C 31.515625 -18.757812 31 -20.96875 29.96875 -22.90625 C 28.9375 -24.84375 27.5 -26.335938 25.65625 -27.390625 C 23.820312 -28.441406 21.75 -28.96875 19.4375 -28.96875 C 17.125 -28.96875 15.050781 -28.441406 13.21875 -27.390625 C 11.382812 -26.335938 9.941406 -24.84375 8.890625 -22.90625 C 7.835938 -20.96875 7.3125 -18.757812 7.3125 -16.28125 C 7.3125 -13.800781 7.835938 -11.59375 8.890625 -9.65625 C 9.941406 -7.71875 11.382812 -6.222656 13.21875 -5.171875 C 15.050781 -4.117188 17.125 -3.59375 19.4375 -3.59375 Z M 19.4375 -3.59375 "/></g></g></g><g fill="#000000" fill-opacity="1"><g transform="translate(79.669871, 59.315618)"><g><path d="M 19.625 0.3125 C 16.40625 0.3125 13.523438 -0.390625 10.984375 -1.796875 C 8.453125 -3.203125 6.460938 -5.171875 5.015625 -7.703125 C 3.566406 -10.242188 2.84375 -13.101562 2.84375 -16.28125 C 2.84375 -19.457031 3.566406 -22.300781 5.015625 -24.8125 C 6.460938 -27.332031 8.453125 -29.296875 10.984375 -30.703125 C 13.523438 -32.109375 16.40625 -32.8125 19.625 -32.8125 C 22.425781 -32.8125 24.929688 -32.265625 27.140625 -31.171875 C 29.347656 -30.078125 31.09375 -28.476562 32.375 -26.375 L 29.09375 -24.140625 C 28.019531 -25.753906 26.65625 -26.960938 25 -27.765625 C 23.351562 -28.566406 21.5625 -28.96875 19.625 -28.96875 C 17.269531 -28.96875 15.15625 -28.441406 13.28125 -27.390625 C 11.40625 -26.335938 9.941406 -24.84375 8.890625 -22.90625 C 7.835938 -20.96875 7.3125 -18.757812 7.3125 -16.28125 C 7.3125 -13.757812 7.835938 -11.539062 8.890625 -9.625 C 9.941406 -7.707031 11.40625 -6.222656 13.28125 -5.171875 C 15.15625 -4.117188 17.269531 -3.59375 19.625 -3.59375 C 21.5625 -3.59375 23.351562 -3.984375 25 -4.765625 C 26.65625 -5.546875 28.019531 -6.742188 29.09375 -8.359375 L 32.375 -6.125 C 31.09375 -4.019531 29.335938 -2.421875 27.109375 -1.328125 C 24.878906 -0.234375 22.382812 0.3125 19.625 0.3125 Z M 19.625 0.3125 "/></g></g></g><g fill="#000000" fill-opacity="1"><g transform="translate(115.631137, 59.315618)"><g><path d="M 10.34375 -26.1875 C 11.375 -28.375 12.910156 -30.023438 14.953125 -31.140625 C 16.992188 -32.253906 19.519531 -32.8125 22.53125 -32.8125 L 22.53125 -28.53125 L 21.484375 -28.59375 C 18.054688 -28.59375 15.375 -27.539062 13.4375 -25.4375 C 11.5 -23.332031 10.53125 -20.382812 10.53125 -16.59375 L 10.53125 0 L 6.125 0 L 6.125 -32.5625 L 10.34375 -32.5625 Z M 10.34375 -26.1875 "/></g></g></g><g fill="#000000" fill-opacity="1"><g transform="translate(141.565421, 59.315618)"><g><path d="M 17.515625 -32.8125 C 21.765625 -32.8125 25.023438 -31.75 27.296875 -29.625 C 29.566406 -27.5 30.703125 -24.351562 30.703125 -20.1875 L 30.703125 0 L 26.5 0 L 26.5 -5.078125 C 25.507812 -3.378906 24.050781 -2.054688 22.125 -1.109375 C 20.207031 -0.160156 17.929688 0.3125 15.296875 0.3125 C 11.660156 0.3125 8.769531 -0.550781 6.625 -2.28125 C 4.476562 -4.019531 3.40625 -6.3125 3.40625 -9.15625 C 3.40625 -11.925781 4.40625 -14.15625 6.40625 -15.84375 C 8.40625 -17.539062 11.59375 -18.390625 15.96875 -18.390625 L 26.3125 -18.390625 L 26.3125 -20.359375 C 26.3125 -23.171875 25.523438 -25.304688 23.953125 -26.765625 C 22.390625 -28.234375 20.101562 -28.96875 17.09375 -28.96875 C 15.019531 -28.96875 13.035156 -28.625 11.140625 -27.9375 C 9.242188 -27.257812 7.613281 -26.328125 6.25 -25.140625 L 4.265625 -28.421875 C 5.921875 -29.816406 7.90625 -30.894531 10.21875 -31.65625 C 12.53125 -32.425781 14.960938 -32.8125 17.515625 -32.8125 Z M 15.96875 -3.15625 C 18.445312 -3.15625 20.570312 -3.722656 22.34375 -4.859375 C 24.125 -5.992188 25.445312 -7.632812 26.3125 -9.78125 L 26.3125 -15.109375 L 16.09375 -15.109375 C 10.519531 -15.109375 7.734375 -13.164062 7.734375 -9.28125 C 7.734375 -7.382812 8.457031 -5.890625 9.90625 -4.796875 C 11.351562 -3.703125 13.375 -3.15625 15.96875 -3.15625 Z M 15.96875 -3.15625 "/></g></g></g><g fill="#000000" fill-opacity="1"><g transform="translate(179.197847, 59.315618)"><g><path d="M 23.28125 -1.984375 C 22.445312 -1.234375 21.421875 -0.660156 20.203125 -0.265625 C 18.992188 0.117188 17.726562 0.3125 16.40625 0.3125 C 13.351562 0.3125 11 -0.507812 9.34375 -2.15625 C 7.695312 -3.8125 6.875 -6.144531 6.875 -9.15625 L 6.875 -28.84375 L 1.046875 -28.84375 L 1.046875 -32.5625 L 6.875 -32.5625 L 6.875 -39.6875 L 11.265625 -39.6875 L 11.265625 -32.5625 L 21.171875 -32.5625 L 21.171875 -28.84375 L 11.265625 -28.84375 L 11.265625 -9.40625 C 11.265625 -7.46875 11.75 -5.992188 12.71875 -4.984375 C 13.6875 -3.972656 15.082031 -3.46875 16.90625 -3.46875 C 17.8125 -3.46875 18.6875 -3.609375 19.53125 -3.890625 C 20.375 -4.179688 21.109375 -4.597656 21.734375 -5.140625 Z M 23.28125 -1.984375 "/></g></g></g><g fill="#ffffff" fill-opacity="1"><g transform="translate(205.452609, 59.315618)"><g><path d="M 7.0625 -43.328125 L 11.640625 -43.328125 L 11.640625 0 L 7.0625 0 Z M 7.0625 -43.328125 "/></g></g></g><g fill="#ffffff" fill-opacity="1"><g transform="translate(225.259288, 59.315618)"><g><path d="M 23.28125 -1.984375 C 22.445312 -1.234375 21.421875 -0.660156 20.203125 -0.265625 C 18.992188 0.117188 17.726562 0.3125 16.40625 0.3125 C 13.351562 0.3125 11 -0.507812 9.34375 -2.15625 C 7.695312 -3.8125 6.875 -6.144531 6.875 -9.15625 L 6.875 -28.84375 L 1.046875 -28.84375 L 1.046875 -32.5625 L 6.875 -32.5625 L 6.875 -39.6875 L 11.265625 -39.6875 L 11.265625 -32.5625 L 21.171875 -32.5625 L 21.171875 -28.84375 L 11.265625 -28.84375 L 11.265625 -9.40625 C 11.265625 -7.46875 11.75 -5.992188 12.71875 -4.984375 C 13.6875 -3.972656 15.082031 -3.46875 16.90625 -3.46875 C 17.8125 -3.46875 18.6875 -3.609375 19.53125 -3.890625 C 20.375 -4.179688 21.109375 -4.597656 21.734375 -5.140625 Z M 23.28125 -1.984375 "/></g></g></g><g fill="#ffffff" fill-opacity="1"><g transform="translate(251.503036, 59.315618)"><g><path d="M 6.5625 0.3125 C 5.65625 0.3125 4.878906 -0.015625 4.234375 -0.671875 C 3.597656 -1.335938 3.28125 -2.144531 3.28125 -3.09375 C 3.28125 -4.039062 3.597656 -4.832031 4.234375 -5.46875 C 4.878906 -6.113281 5.65625 -6.4375 6.5625 -6.4375 C 7.46875 -6.4375 8.25 -6.113281 8.90625 -5.46875 C 9.570312 -4.832031 9.90625 -4.039062 9.90625 -3.09375 C 9.90625 -2.144531 9.570312 -1.335938 8.90625 -0.671875 C 8.25 -0.015625 7.46875 0.3125 6.5625 0.3125 Z M 6.5625 0.3125 "/></g></g></g><g fill="#ffffff" fill-opacity="1"><g transform="translate(265.739165, 59.315618)"><g><path d="M 17.515625 -32.8125 C 21.765625 -32.8125 25.023438 -31.75 27.296875 -29.625 C 29.566406 -27.5 30.703125 -24.351562 30.703125 -20.1875 L 30.703125 0 L 26.5 0 L 26.5 -5.078125 C 25.507812 -3.378906 24.050781 -2.054688 22.125 -1.109375 C 20.207031 -0.160156 17.929688 0.3125 15.296875 0.3125 C 11.660156 0.3125 8.769531 -0.550781 6.625 -2.28125 C 4.476562 -4.019531 3.40625 -6.3125 3.40625 -9.15625 C 3.40625 -11.925781 4.40625 -14.15625 6.40625 -15.84375 C 8.40625 -17.539062 11.59375 -18.390625 15.96875 -18.390625 L 26.3125 -18.390625 L 26.3125 -20.359375 C 26.3125 -23.171875 25.523438 -25.304688 23.953125 -26.765625 C 22.390625 -28.234375 20.101562 -28.96875 17.09375 -28.96875 C 15.019531 -28.96875 13.035156 -28.625 11.140625 -27.9375 C 9.242188 -27.257812 7.613281 -26.328125 6.25 -25.140625 L 4.265625 -28.421875 C 5.921875 -29.816406 7.90625 -30.894531 10.21875 -31.65625 C 12.53125 -32.425781 14.960938 -32.8125 17.515625 -32.8125 Z M 15.96875 -3.15625 C 18.445312 -3.15625 20.570312 -3.722656 22.34375 -4.859375 C 24.125 -5.992188 25.445312 -7.632812 26.3125 -9.78125 L 26.3125 -15.109375 L 16.09375 -15.109375 C 10.519531 -15.109375 7.734375 -13.164062 7.734375 -9.28125 C 7.734375 -7.382812 8.457031 -5.890625 9.90625 -4.796875 C 11.351562 -3.703125 13.375 -3.15625 15.96875 -3.15625 Z M 15.96875 -3.15625 "/></g></g></g><g fill="#ffffff" fill-opacity="1"><g transform="translate(303.371591, 59.315618)"><g><path d="M 6.125 -32.5625 L 10.53125 -32.5625 L 10.53125 0 L 6.125 0 Z M 8.34375 -39.6875 C 7.4375 -39.6875 6.671875 -39.992188 6.046875 -40.609375 C 5.429688 -41.234375 5.125 -41.976562 5.125 -42.84375 C 5.125 -43.664062 5.429688 -44.382812 6.046875 -45 C 6.671875 -45.625 7.4375 -45.9375 8.34375 -45.9375 C 9.257812 -45.9375 10.023438 -45.632812 10.640625 -45.03125 C 11.253906 -44.4375 11.5625 -43.726562 11.5625 -42.90625 C 11.5625 -42 11.253906 -41.234375 10.640625 -40.609375 C 10.023438 -39.992188 9.257812 -39.6875 8.34375 -39.6875 Z M 8.34375 -39.6875 "/></g></g></g></g></g></svg>