<svg xmlns="http://www.w3.org/2000/svg" xmlns:xlink="http://www.w3.org/1999/xlink" width="500" zoomAndPan="magnify" viewBox="0 0 375 374.999991" height="500" preserveAspectRatio="xMidYMid meet" version="1.0"><defs><g/><clipPath id="d53bf355b1"><rect x="0" width="347" y="0" height="90"/></clipPath><clipPath id="bfab2fdcc2"><path d="M 215.121094 171.730469 L 258.335938 171.730469 L 258.335938 214.945312 L 215.121094 214.945312 Z M 215.121094 171.730469 " clip-rule="nonzero"/></clipPath><clipPath id="8de4817fe8"><path d="M 236.726562 171.730469 L 258.335938 193.339844 L 236.726562 214.945312 L 215.121094 193.339844 Z M 236.726562 171.730469 " clip-rule="nonzero"/></clipPath><clipPath id="9424c21300"><path d="M 0.121094 0.730469 L 43.335938 0.730469 L 43.335938 43.945312 L 0.121094 43.945312 Z M 0.121094 0.730469 " clip-rule="nonzero"/></clipPath><clipPath id="859cd03070"><path d="M 21.726562 0.730469 L 43.335938 22.339844 L 21.726562 43.945312 L 0.121094 22.339844 Z M 21.726562 0.730469 " clip-rule="nonzero"/></clipPath><clipPath id="bc35915bcb"><rect x="0" width="44" y="0" height="44"/></clipPath><clipPath id="8062ecae14"><path d="M 236.273438 182.308594 L 258.335938 182.308594 L 258.335938 204.367188 L 236.273438 204.367188 Z M 236.273438 182.308594 " clip-rule="nonzero"/></clipPath><clipPath id="c6e53286be"><path d="M 247.304688 182.308594 L 258.335938 193.339844 L 247.304688 204.367188 L 236.273438 193.339844 Z M 247.304688 182.308594 " clip-rule="nonzero"/></clipPath><clipPath id="ecd845a655"><path d="M 0.273438 0.308594 L 22.335938 0.308594 L 22.335938 22.367188 L 0.273438 22.367188 Z M 0.273438 0.308594 " clip-rule="nonzero"/></clipPath><clipPath id="64491071ec"><path d="M 11.304688 0.308594 L 22.335938 11.339844 L 11.304688 22.367188 L 0.273438 11.339844 Z M 11.304688 0.308594 " clip-rule="nonzero"/></clipPath><clipPath id="e921cfe416"><rect x="0" width="23" y="0" height="23"/></clipPath></defs><g transform="matrix(1, 0, 0, 1, 14, 142)"><g clip-path="url(#d53bf355b1)"><g fill="#000000" fill-opacity="1"><g transform="translate(0.673555, 70.105573)"><g><path d="M 5.109375 -51.015625 L 29.234375 -51.015625 C 34.816406 -51.015625 39.769531 -49.96875 44.09375 -47.875 C 48.425781 -45.789062 51.78125 -42.828125 54.15625 -38.984375 C 56.539062 -35.148438 57.734375 -30.660156 57.734375 -25.515625 C 57.734375 -20.359375 56.539062 -15.859375 54.15625 -12.015625 C 51.78125 -8.179688 48.425781 -5.21875 44.09375 -3.125 C 39.769531 -1.039062 34.816406 0 29.234375 0 L 5.109375 0 Z M 28.640625 -11.515625 C 33.015625 -11.515625 36.523438 -12.753906 39.171875 -15.234375 C 41.828125 -17.710938 43.15625 -21.140625 43.15625 -25.515625 C 43.15625 -29.890625 41.828125 -33.3125 39.171875 -35.78125 C 36.523438 -38.257812 33.015625 -39.5 28.640625 -39.5 L 19.53125 -39.5 L 19.53125 -11.515625 Z M 28.640625 -11.515625 "/></g></g></g><g fill="#000000" fill-opacity="1"><g transform="translate(60.883126, 70.105573)"><g><path d="M 46.0625 -39.5 L 29.015625 1.609375 C 27.015625 6.460938 24.582031 9.875 21.71875 11.84375 C 18.851562 13.8125 15.351562 14.796875 11.21875 14.796875 C 9.132812 14.796875 7.035156 14.46875 4.921875 13.8125 C 2.804688 13.15625 1.09375 12.289062 -0.21875 11.21875 L 4.59375 1.53125 C 5.375 2.257812 6.304688 2.828125 7.390625 3.234375 C 8.484375 3.648438 9.59375 3.859375 10.71875 3.859375 C 12.03125 3.859375 13.109375 3.59375 13.953125 3.0625 C 14.804688 2.53125 15.523438 1.679688 16.109375 0.515625 L -0.796875 -39.5 L 13.40625 -39.5 L 23.109375 -15.375 L 32.875 -39.5 Z M 46.0625 -39.5 "/></g></g></g><g fill="#000000" fill-opacity="1"><g transform="translate(104.983303, 70.105573)"><g><path d="M 46.4375 -54.078125 L 46.4375 0 L 33.234375 0 L 33.234375 -3.9375 C 30.660156 -0.875 26.800781 0.65625 21.65625 0.65625 C 18.050781 0.65625 14.765625 -0.179688 11.796875 -1.859375 C 8.835938 -3.535156 6.492188 -5.925781 4.765625 -9.03125 C 3.046875 -12.144531 2.1875 -15.742188 2.1875 -19.828125 C 2.1875 -23.910156 3.046875 -27.492188 4.765625 -30.578125 C 6.492188 -33.660156 8.835938 -36.023438 11.796875 -37.671875 C 14.765625 -39.328125 18.050781 -40.15625 21.65625 -40.15625 C 26.363281 -40.15625 30.003906 -38.796875 32.578125 -36.078125 L 32.578125 -54.078125 Z M 24.5625 -10.34375 C 26.945312 -10.34375 28.914062 -11.179688 30.46875 -12.859375 C 32.019531 -14.535156 32.796875 -16.859375 32.796875 -19.828125 C 32.796875 -22.742188 32.03125 -25.023438 30.5 -26.671875 C 28.96875 -28.328125 26.988281 -29.15625 24.5625 -29.15625 C 22.132812 -29.15625 20.140625 -28.328125 18.578125 -26.671875 C 17.023438 -25.023438 16.25 -22.742188 16.25 -19.828125 C 16.25 -16.859375 17.023438 -14.535156 18.578125 -12.859375 C 20.140625 -11.179688 22.132812 -10.34375 24.5625 -10.34375 Z M 24.5625 -10.34375 "/></g></g></g><g fill="#000000" fill-opacity="1"><g transform="translate(155.86258, 70.105573)"><g><path d="M 21.28125 -40.15625 C 27.84375 -40.15625 32.847656 -38.660156 36.296875 -35.671875 C 39.742188 -32.691406 41.46875 -28.113281 41.46875 -21.9375 L 41.46875 0 L 28.578125 0 L 28.578125 -5.109375 C 26.578125 -1.265625 22.6875 0.65625 16.90625 0.65625 C 13.84375 0.65625 11.191406 0.125 8.953125 -0.9375 C 6.722656 -2.007812 5.035156 -3.457031 3.890625 -5.28125 C 2.753906 -7.101562 2.1875 -9.179688 2.1875 -11.515625 C 2.1875 -15.253906 3.617188 -18.15625 6.484375 -20.21875 C 9.347656 -22.289062 13.769531 -23.328125 19.75 -23.328125 L 27.625 -23.328125 C 27.382812 -27.503906 24.59375 -29.59375 19.25 -29.59375 C 17.351562 -29.59375 15.429688 -29.285156 13.484375 -28.671875 C 11.535156 -28.066406 9.882812 -27.234375 8.53125 -26.171875 L 3.859375 -35.578125 C 6.046875 -37.023438 8.707031 -38.148438 11.84375 -38.953125 C 14.976562 -39.753906 18.125 -40.15625 21.28125 -40.15625 Z M 20.78125 -8.09375 C 22.375 -8.09375 23.78125 -8.476562 25 -9.25 C 26.21875 -10.03125 27.09375 -11.175781 27.625 -12.6875 L 27.625 -16.109375 L 21.65625 -16.109375 C 17.613281 -16.109375 15.59375 -14.769531 15.59375 -12.09375 C 15.59375 -10.882812 16.054688 -9.914062 16.984375 -9.1875 C 17.910156 -8.457031 19.175781 -8.09375 20.78125 -8.09375 Z M 20.78125 -8.09375 "/></g></g></g><g fill="#000000" fill-opacity="1"><g transform="translate(201.647368, 70.105573)"><g/></g></g><g fill="#000000" fill-opacity="1"><g transform="translate(222.859218, 70.105573)"><g/></g></g><g fill="#000000" fill-opacity="1"><g transform="translate(244.084673, 70.105573)"><g><path d="M 31.703125 -1.609375 C 30.535156 -0.878906 29.113281 -0.320312 27.4375 0.0625 C 25.757812 0.457031 23.972656 0.65625 22.078125 0.65625 C 16.929688 0.65625 12.972656 -0.601562 10.203125 -3.125 C 7.429688 -5.65625 6.046875 -9.425781 6.046875 -14.4375 L 6.046875 -27.703125 L 0.296875 -27.703125 L 0.296875 -38.046875 L 6.046875 -38.046875 L 6.046875 -48.328125 L 19.90625 -48.328125 L 19.90625 -38.046875 L 28.9375 -38.046875 L 28.9375 -27.703125 L 19.90625 -27.703125 L 19.90625 -14.578125 C 19.90625 -13.171875 20.28125 -12.066406 21.03125 -11.265625 C 21.78125 -10.460938 22.785156 -10.0625 24.046875 -10.0625 C 25.648438 -10.0625 27.0625 -10.472656 28.28125 -11.296875 Z M 31.703125 -1.609375 "/></g></g></g><g fill="#000000" fill-opacity="1"><g transform="translate(276.667811, 70.105573)"><g><path d="M 21.359375 -61.375 L 33.671875 -61.375 L 9.625 7.28125 L -2.703125 7.28125 Z M 21.359375 -61.375 "/></g></g></g><g fill="#000000" fill-opacity="1"><g transform="translate(302.398852, 70.105573)"><g><path d="M 24.640625 0.65625 C 20.265625 0.65625 16.347656 -0.21875 12.890625 -1.96875 C 9.441406 -3.71875 6.757812 -6.144531 4.84375 -9.25 C 2.925781 -12.363281 1.96875 -15.890625 1.96875 -19.828125 C 1.96875 -23.765625 2.925781 -27.273438 4.84375 -30.359375 C 6.757812 -33.441406 9.441406 -35.84375 12.890625 -37.5625 C 16.347656 -39.289062 20.265625 -40.15625 24.640625 -40.15625 C 29.109375 -40.15625 32.96875 -39.195312 36.21875 -37.28125 C 39.476562 -35.363281 41.789062 -32.703125 43.15625 -29.296875 L 32.4375 -23.828125 C 30.632812 -27.378906 28.007812 -29.15625 24.5625 -29.15625 C 22.082031 -29.15625 20.03125 -28.328125 18.40625 -26.671875 C 16.78125 -25.023438 15.96875 -22.742188 15.96875 -19.828125 C 15.96875 -16.859375 16.78125 -14.535156 18.40625 -12.859375 C 20.03125 -11.179688 22.082031 -10.34375 24.5625 -10.34375 C 28.007812 -10.34375 30.632812 -12.117188 32.4375 -15.671875 L 43.15625 -10.203125 C 41.789062 -6.804688 39.476562 -4.144531 36.21875 -2.21875 C 32.96875 -0.300781 29.109375 0.65625 24.640625 0.65625 Z M 24.640625 0.65625 "/></g></g></g></g></g><g clip-path="url(#bfab2fdcc2)"><g clip-path="url(#8de4817fe8)"><g transform="matrix(1, 0, 0, 1, 215, 171)"><g clip-path="url(#bc35915bcb)"><g clip-path="url(#9424c21300)"><g clip-path="url(#859cd03070)"><path fill="#000000" d="M 0.121094 0.730469 L 43.335938 0.730469 L 43.335938 43.945312 L 0.121094 43.945312 Z M 0.121094 0.730469 " fill-opacity="1" fill-rule="nonzero"/></g></g></g></g></g></g><g clip-path="url(#8062ecae14)"><g clip-path="url(#c6e53286be)"><g transform="matrix(1, 0, 0, 1, 236, 182)"><g clip-path="url(#e921cfe416)"><g clip-path="url(#ecd845a655)"><g clip-path="url(#64491071ec)"><path fill="#004aad" d="M 0.273438 0.308594 L 22.335938 0.308594 L 22.335938 22.367188 L 0.273438 22.367188 Z M 0.273438 0.308594 " fill-opacity="1" fill-rule="nonzero"/></g></g></g></g></g></g></svg>